<?xml version="1.0" encoding="utf-8" ?>
<svg baseProfile="full" font-family="system-ui, -apple-system, sans-serif" height="1220" version="1.1" width="1220" xmlns="http://www.w3.org/2000/svg" xmlns:ev="http://www.w3.org/2001/xml-events" xmlns:xlink="http://www.w3.org/1999/xlink"><defs><filter height="220%" id="glow-warn" width="220%" x="-60%" y="-60%"><feGaussianBlur in="SourceAlpha" result="blur" stdDeviation="6" /><feFlood flood-color="#f59e0b" flood-opacity="0.85" result="flood" /><feComposite in="flood" in2="blur" operator="in" result="glow" /><feMerge><feMergeNode in="glow" /><feMergeNode in="SourceGraphic" /></feMerge></filter><filter height="220%" id="glow-crit" width="220%" x="-60%" y="-60%"><feGaussianBlur in="SourceAlpha" result="blur" stdDeviation="8" /><feFlood flood-color="#ef4444" flood-opacity="0.85" result="flood" /><feComposite in="flood" in2="blur" operator="in" result="glow" /><feMerge><feMergeNode in="glow" /><feMergeNode in="SourceGraphic" /></feMerge></filter></defs><rect fill="#0f172a" height="1220" width="1220" x="0" y="0" /><g id="ring-fills"><circle cx="610.0" cy="610.0" fill="#201018" r="270.0" stroke="none" /><circle cx="610.0" cy="610.0" fill="#161a1c" r="180.0" stroke="none" /><circle cx="610.0" cy="610.0" fill="#0d2420" r="90.0" stroke="none" /><circle cx="610.0" cy="610.0" fill="#0f172a" r="38" stroke="none" /></g><g id="rings"><circle cx="610.0" cy="610.0" fill="none" r="90.0" stroke="#1e4035" stroke-dasharray="5,4" stroke-width="1" /><text fill="#5eead4" font-size="12px" font-weight="bold" letter-spacing="0.5" text-anchor="middle" x="610.0" y="534.0">Hop 1</text><circle cx="610.0" cy="610.0" fill="none" r="180.0" stroke="#2e2f32" stroke-dasharray="5,4" stroke-width="1" /><text fill="#60a5fa" font-size="12px" font-weight="bold" letter-spacing="0.5" text-anchor="middle" x="610.0" y="444.0">Hop 2</text><circle cx="610.0" cy="610.0" fill="none" r="270.0" stroke="#3d1e2e" stroke-dasharray="5,4" stroke-width="1" /><text fill="#a78bfa" font-size="12px" font-weight="bold" letter-spacing="0.5" text-anchor="middle" x="610.0" y="354.0">Hop 3</text></g><g id="edges" opacity="0.55"><line stroke="#22c55e" stroke-width="3.13" x1="610.0" x2="610.0" y1="655.0" y2="610.0" /><line stroke="#22c55e" stroke-width="2.83" x1="661.7" x2="610.0" y1="734.7" y2="655.0" /><line stroke="#f59e0b" stroke-width="1.44" x1="558.3" x2="610.0" y1="734.7" y2="655.0" /><line stroke="#f59e0b" stroke-width="1.51" x1="565.0" x2="610.0" y1="610.0" y2="610.0" /><line stroke="#22c55e" stroke-width="2.73" x1="485.3" x2="565.0" y1="661.7" y2="610.0" /><line stroke="#22c55e" stroke-width="2.36" x1="485.3" x2="565.0" y1="558.3" y2="610.0" /><line stroke="#22c55e" stroke-width="2.5" x1="651.6" x2="610.0" y1="592.8" y2="610.0" /><line stroke="#ef4444" stroke-width="1.04" x1="592.8" x2="610.0" y1="568.4" y2="610.0" /><line stroke="#f59e0b" stroke-width="1.57" x1="734.7" x2="651.6" y1="558.3" y2="592.8" /><line stroke="#22c55e" stroke-width="2.94" x1="735.0" x2="734.7" y1="422.9" y2="558.3" /><line stroke="#22c55e" stroke-width="3.11" x1="830.7" x2="734.7" y1="653.9" y2="558.3" /></g><g id="nodes"><circle cx="610.0" cy="610.0" fill="#f59e0b" r="28" stroke="#f59e0b" stroke-width="0" /><circle cx="651.6" cy="592.8" fill="#0ea5e9" r="20" stroke="#0ea5e9" stroke-width="0" /><rect fill="#0f172a" height="11" opacity="0.82" rx="3" width="26" x="638.6" y="587.3" /><text fill="#22c55e" font-size="9px" font-weight="bold" text-anchor="middle" x="651.6" y="596.1">155</text><circle cx="734.7" cy="558.3" fill="#0ea5e9" filter="url(#glow-warn)" r="20" stroke="#f59e0b" stroke-width="2" /><rect fill="#0f172a" height="11" opacity="0.82" rx="3" width="20" x="724.7" y="552.8" /><text fill="#f59e0b" font-size="9px" font-weight="bold" text-anchor="middle" x="734.7" y="561.6">70</text><circle cx="735.0" cy="422.9" fill="#475569" r="14" stroke="#475569" stroke-width="0" /><rect fill="#0f172a" height="10" opacity="0.82" rx="3" width="18" x="726.0" y="417.9" /><text fill="#f59e0b" font-size="8px" font-weight="bold" text-anchor="middle" x="735.0" y="425.9">70</text><circle cx="830.7" cy="653.9" fill="#475569" r="14" stroke="#475569" stroke-width="0" /><rect fill="#0f172a" height="10" opacity="0.82" rx="3" width="18" x="821.7" y="648.9" /><text fill="#f59e0b" font-size="8px" font-weight="bold" text-anchor="middle" x="830.7" y="656.9">70</text><circle cx="610.0" cy="655.0" fill="#0ea5e9" r="20" stroke="#0ea5e9" stroke-width="0" /><rect fill="#0f172a" height="11" opacity="0.82" rx="3" width="26" x="597.0" y="649.5" /><text fill="#22c55e" font-size="9px" font-weight="bold" text-anchor="middle" x="610.0" y="658.3">212</text><circle cx="661.7" cy="734.7" fill="#475569" r="14" stroke="#475569" stroke-width="0" /><rect fill="#0f172a" height="10" opacity="0.82" rx="3" width="23" x="650.2" y="729.7" /><text fill="#22c55e" font-size="8px" font-weight="bold" text-anchor="middle" x="661.7" y="737.7">185</text><circle cx="558.3" cy="734.7" fill="#475569" filter="url(#glow-warn)" r="14" stroke="#f59e0b" stroke-width="2" /><rect fill="#0f172a" height="10" opacity="0.82" rx="3" width="18" x="549.3" y="729.7" /><text fill="#f59e0b" font-size="8px" font-weight="bold" text-anchor="middle" x="558.3" y="737.7">58</text><circle cx="565.0" cy="610.0" fill="#0ea5e9" filter="url(#glow-warn)" r="20" stroke="#f59e0b" stroke-width="2" /><rect fill="#0f172a" height="11" opacity="0.82" rx="3" width="20" x="555.0" y="604.5" /><text fill="#f59e0b" font-size="9px" font-weight="bold" text-anchor="middle" x="565.0" y="613.3">65</text><circle cx="485.3" cy="661.7" fill="#475569" r="14" stroke="#475569" stroke-width="0" /><rect fill="#0f172a" height="10" opacity="0.82" rx="3" width="18" x="476.3" y="656.7" /><text fill="#f59e0b" font-size="8px" font-weight="bold" text-anchor="middle" x="485.3" y="664.7">65</text><circle cx="485.3" cy="558.3" fill="#475569" r="14" stroke="#475569" stroke-width="0" /><rect fill="#0f172a" height="10" opacity="0.82" rx="3" width="18" x="476.3" y="553.3" /><text fill="#f59e0b" font-size="8px" font-weight="bold" text-anchor="middle" x="485.3" y="561.3">65</text><circle cx="592.8" cy="568.4" fill="#475569" filter="url(#glow-crit)" r="14" stroke="#ef4444" stroke-width="3" /><rect fill="#0f172a" height="10" opacity="0.82" rx="3" width="18" x="583.8" y="563.4" /><text fill="#ef4444" font-size="8px" font-weight="bold" text-anchor="middle" x="592.8" y="571.4">22</text></g><g id="labels"><rect fill="#0f172a" height="16" opacity="0.7" rx="5" width="76" x="572.0" y="641.0" /><text fill="#e2e8f0" font-size="11px" text-anchor="middle" x="610.0" y="654.0">Coordinator</text><rect fill="#0f172a" height="16" opacity="0.7" rx="5" width="82" x="679.0" y="566.8" /><text fill="#e2e8f0" font-size="11px" text-anchor="start" x="683.0" y="579.8">TRADFRI Bulb</text><rect fill="#0f172a" height="16" opacity="0.7" rx="5" width="76" x="762.1" y="532.3" /><text fill="#e2e8f0" font-size="11px" text-anchor="start" x="766.1" y="545.3">Hall Outlet</text><rect fill="#0f172a" height="16" opacity="0.7" rx="5" width="94" x="746.6" y="386.6" /><text fill="#e2e8f0" font-size="11px" text-anchor="start" x="750.6" y="399.6">Bedroom Sensor</text><rect fill="#0f172a" height="16" opacity="0.7" rx="5" width="88" x="854.1" y="646.4" /><text fill="#e2e8f0" font-size="11px" text-anchor="start" x="858.1" y="659.4">Living Motion</text><rect fill="#0f172a" height="16" opacity="0.7" rx="5" width="76" x="572.0" y="676.0" /><text fill="#e2e8f0" font-size="11px" text-anchor="middle" x="610.0" y="689.0">IKEA Outlet</text><rect fill="#0f172a" height="16" opacity="0.7" rx="5" width="112" x="668.4" y="747.6" /><text fill="#e2e8f0" font-size="11px" text-anchor="start" x="672.4" y="760.6">Aqara Door Sensor</text><rect fill="#0f172a" height="16" opacity="0.7" rx="5" width="70" x="481.6" y="747.6" /><text fill="#e2e8f0" font-size="11px" text-anchor="end" x="547.6" y="760.6">Hue Motion</text><rect fill="#0f172a" height="16" opacity="0.7" rx="5" width="88" x="447.0" y="597.0" /><text fill="#e2e8f0" font-size="11px" text-anchor="end" x="531.0" y="610.0">Sonoff ZBMINI</text><rect fill="#0f172a" height="16" opacity="0.7" rx="5" width="70" x="393.4" y="659.4" /><text fill="#e2e8f0" font-size="11px" text-anchor="end" x="459.4" y="672.4">Aqara Temp</text><rect fill="#0f172a" height="16" opacity="0.7" rx="5" width="100" x="363.4" y="534.6" /><text fill="#e2e8f0" font-size="11px" text-anchor="end" x="459.4" y="547.6">Aqara Vibration</text><rect fill="#0f172a" height="16" opacity="0.7" rx="5" width="94" x="492.1" y="529.6" /><text fill="#e2e8f0" font-size="11px" text-anchor="end" x="582.1" y="542.6">Smoke Detector</text></g><g id="lqi-labels"><rect fill="#0f172a" height="13" opacity="0.85" rx="4" width="31" x="594.5" y="630.2" /><text fill="#22c55e" font-size="11px" opacity="0.95" text-anchor="middle" x="610.0" y="640.2">212</text><rect fill="#0f172a" height="13" opacity="0.85" rx="4" width="31" x="628.1" y="697.8" /><text fill="#22c55e" font-size="11px" opacity="0.95" text-anchor="middle" x="643.6" y="707.8">185</text><rect fill="#0f172a" height="13" opacity="0.85" rx="4" width="24" x="564.4" y="697.8" /><text fill="#f59e0b" font-size="11px" opacity="0.95" text-anchor="middle" x="576.4" y="707.8">58</text><rect fill="#0f172a" height="13" opacity="0.85" rx="4" width="24" x="568.8" y="601.0" /><text fill="#f59e0b" font-size="11px" opacity="0.95" text-anchor="middle" x="580.8" y="611.0">65</text><rect fill="#0f172a" height="13" opacity="0.85" rx="4" width="31" x="497.7" y="634.6" /><text fill="#22c55e" font-size="11px" opacity="0.95" text-anchor="middle" x="513.2" y="644.6">176</text><rect fill="#0f172a" height="13" opacity="0.85" rx="4" width="31" x="497.7" y="567.4" /><text fill="#22c55e" font-size="11px" opacity="0.95" text-anchor="middle" x="513.2" y="577.4">142</text><rect fill="#0f172a" height="13" opacity="0.85" rx="4" width="31" x="621.5" y="589.8" /><text fill="#22c55e" font-size="11px" opacity="0.95" text-anchor="middle" x="637.0" y="599.8">155</text><rect fill="#0f172a" height="13" opacity="0.85" rx="4" width="24" x="586.8" y="574.0" /><text fill="#ef4444" font-size="11px" opacity="0.95" text-anchor="middle" x="598.8" y="584.0">22</text><rect fill="#0f172a" height="13" opacity="0.85" rx="4" width="24" x="693.6" y="561.4" /><text fill="#f59e0b" font-size="11px" opacity="0.95" text-anchor="middle" x="705.6" y="571.4">70</text><rect fill="#0f172a" height="13" opacity="0.85" rx="4" width="31" x="719.4" y="461.3" /><text fill="#22c55e" font-size="11px" opacity="0.95" text-anchor="middle" x="734.9" y="471.3">195</text><rect fill="#0f172a" height="13" opacity="0.85" rx="4" width="31" x="781.6" y="611.5" /><text fill="#22c55e" font-size="11px" opacity="0.95" text-anchor="middle" x="797.1" y="621.5">210</text></g><g id="legend"><rect fill="#1e293b" height="290" rx="8" stroke="#334155" stroke-width="1" width="280" x="20" y="20" /><text fill="#e2e8f0" font-size="12px" font-weight="bold" text-anchor="middle" x="160" y="38">Legend</text><circle cx="36" cy="59" fill="#f59e0b" r="9" /><text fill="#e2e8f0" font-size="11px" x="50" y="62">Coordinator</text><circle cx="36" cy="83" fill="#0ea5e9" r="7" /><text fill="#e2e8f0" font-size="11px" x="50" y="86">Router</text><circle cx="36" cy="107" fill="#475569" r="5" /><text fill="#e2e8f0" font-size="11px" x="50" y="110">End device</text><circle cx="36" cy="137" fill="#0ea5e9" filter="url(#glow-warn)" r="7" stroke="#f59e0b" stroke-width="2" /><text fill="#f59e0b" font-size="11px" x="50" y="140">Weak node  (LQI &lt; 80)</text><circle cx="36" cy="161" fill="#0ea5e9" filter="url(#glow-crit)" r="7" stroke="#ef4444" stroke-width="2" /><text fill="#ef4444" font-size="11px" x="50" y="164">Critical node  (LQI &lt; 30)</text><circle cx="36" cy="191" fill="#0ea5e9" r="7" /><rect fill="#0f172a" height="10" opacity="0.82" rx="3" width="14" x="29.0" y="186" /><text fill="#22c55e" font-size="8px" font-weight="bold" text-anchor="middle" x="36" y="194">42</text><text fill="#64748b" font-size="11px" x="50" y="194">path min LQI (worst hop)</text><line stroke="#22c55e" stroke-width="2" x1="28" x2="46" y1="214" y2="214" /><text fill="#e2e8f0" font-size="11px" x="52" y="218">LQI ≥ 80  (good)</text><line stroke="#f59e0b" stroke-width="2" x1="28" x2="46" y1="234" y2="234" /><text fill="#e2e8f0" font-size="11px" x="52" y="238">LQI 30–80  (weak)</text><line stroke="#ef4444" stroke-width="2" x1="28" x2="46" y1="254" y2="254" /><text fill="#e2e8f0" font-size="11px" x="52" y="258">LQI &lt; 30  (critical)</text></g></svg>