<?xml version="1.0" encoding="utf-8" ?>
<svg baseProfile="full" font-family="system-ui, -apple-system, sans-serif" height="1344" version="1.1" width="1344" xmlns="http://www.w3.org/2000/svg" xmlns:ev="http://www.w3.org/2001/xml-events" xmlns:xlink="http://www.w3.org/1999/xlink"><defs><filter height="220%" id="glow-warn" width="220%" x="-60%" y="-60%"><feGaussianBlur in="SourceAlpha" result="blur" stdDeviation="6" /><feFlood flood-color="#f59e0b" flood-opacity="0.85" result="flood" /><feComposite in="flood" in2="blur" operator="in" result="glow" /><feMerge><feMergeNode in="glow" /><feMergeNode in="SourceGraphic" /></feMerge></filter><filter height="220%" id="glow-crit" width="220%" x="-60%" y="-60%"><feGaussianBlur in="SourceAlpha" result="blur" stdDeviation="8" /><feFlood flood-color="#ef4444" flood-opacity="0.85" result="flood" /><feComposite in="flood" in2="blur" operator="in" result="glow" /><feMerge><feMergeNode in="glow" /><feMergeNode in="SourceGraphic" /></feMerge></filter></defs><rect fill="#0f172a" height="1344" width="1344" x="0" y="0" /><g id="ring-fills"><circle cx="672.2309962945756" cy="672.2309962945756" fill="#201018" r="332.2309962945756" stroke="none" /><circle cx="672.2309962945756" cy="672.2309962945756" fill="#161a1c" r="242.23099629457562" stroke="none" /><circle cx="672.2309962945756" cy="672.2309962945756" fill="#0d2420" r="152.23099629457562" stroke="none" /><circle cx="672.2309962945756" cy="672.2309962945756" fill="#0f172a" r="38" stroke="none" /></g><g id="rings"><circle cx="672.2309962945756" cy="672.2309962945756" fill="none" r="152.23099629457562" stroke="#1e4035" stroke-dasharray="5,4" stroke-width="1" /><text fill="#facc15" font-size="12px" font-weight="bold" letter-spacing="0.5" text-anchor="middle" x="672.2309962945756" y="534.0">Hop 1</text><circle cx="672.2309962945756" cy="672.2309962945756" fill="none" r="242.23099629457562" stroke="#2e2f32" stroke-dasharray="5,4" stroke-width="1" /><text fill="#4ade80" font-size="12px" font-weight="bold" letter-spacing="0.5" text-anchor="middle" x="672.2309962945756" y="443.99999999999994">Hop 2</text><circle cx="672.2309962945756" cy="672.2309962945756" fill="none" r="332.2309962945756" stroke="#3d1e2e" stroke-dasharray="5,4" stroke-width="1" /><text fill="#60a5fa" font-size="12px" font-weight="bold" letter-spacing="0.5" text-anchor="middle" x="672.2309962945756" y="353.99999999999994">Hop 3</text></g><g id="edges" opacity="0.55"><line stroke="#22c55e" stroke-width="3.13" x1="672.2" x2="672.2" y1="748.3" y2="672.2" /><line stroke="#22c55e" stroke-width="2.83" x1="747.7" x2="672.2" y1="854.4" y2="748.3" /><line stroke="#f59e0b" stroke-width="1.44" x1="596.8" x2="672.2" y1="854.4" y2="748.3" /><line stroke="#f59e0b" stroke-width="1.51" x1="596.1" x2="672.2" y1="672.2" y2="672.2" /><line stroke="#22c55e" stroke-width="2.73" x1="490.0" x2="596.1" y1="747.7" y2="672.2" /><line stroke="#22c55e" stroke-width="2.36" x1="490.0" x2="596.1" y1="596.8" y2="672.2" /><line stroke="#22c55e" stroke-width="2.5" x1="742.6" x2="672.2" y1="643.1" y2="672.2" /><line stroke="#ef4444" stroke-width="1.04" x1="643.1" x2="672.2" y1="601.9" y2="672.2" /><line stroke="#f59e0b" stroke-width="1.57" x1="854.4" x2="742.6" y1="596.8" y2="643.1" /><line stroke="#22c55e" stroke-width="2.94" x1="831.8" x2="854.4" y1="433.4" y2="596.8" /><line stroke="#22c55e" stroke-width="3.11" x1="953.9" x2="854.4" y1="728.3" y2="596.8" /></g><g id="nodes"><circle cx="672.2" cy="672.2" fill="#f59e0b" r="28" stroke="#f59e0b" stroke-width="0" /><circle cx="742.6" cy="643.1" fill="#0ea5e9" r="20" stroke="#0ea5e9" stroke-width="0" /><rect fill="#0f172a" height="11" opacity="0.82" rx="3" width="26" x="729.6" y="637.6" /><text fill="#22c55e" font-size="9px" font-weight="bold" text-anchor="middle" x="742.6" y="646.4">155</text><circle cx="854.4" cy="596.8" fill="#0ea5e9" filter="url(#glow-warn)" r="20" stroke="#f59e0b" stroke-width="2" /><rect fill="#0f172a" height="11" opacity="0.82" rx="3" width="20" x="844.4" y="591.3" /><text fill="#f59e0b" font-size="9px" font-weight="bold" text-anchor="middle" x="854.4" y="600.1">70</text><circle cx="831.8" cy="433.4" fill="#475569" r="14" stroke="#475569" stroke-width="0" /><rect fill="#0f172a" height="10" opacity="0.82" rx="3" width="18" x="822.8" y="428.4" /><text fill="#f59e0b" font-size="8px" font-weight="bold" text-anchor="middle" x="831.8" y="436.4">70</text><circle cx="953.9" cy="728.3" fill="#475569" r="14" stroke="#475569" stroke-width="0" /><rect fill="#0f172a" height="10" opacity="0.82" rx="3" width="18" x="944.9" y="723.3" /><text fill="#f59e0b" font-size="8px" font-weight="bold" text-anchor="middle" x="953.9" y="731.3">70</text><circle cx="672.2" cy="748.3" fill="#0ea5e9" r="20" stroke="#0ea5e9" stroke-width="0" /><rect fill="#0f172a" height="11" opacity="0.82" rx="3" width="26" x="659.2" y="742.8" /><text fill="#22c55e" font-size="9px" font-weight="bold" text-anchor="middle" x="672.2" y="751.6">212</text><circle cx="747.7" cy="854.4" fill="#475569" r="14" stroke="#475569" stroke-width="0" /><rect fill="#0f172a" height="10" opacity="0.82" rx="3" width="23" x="736.2" y="849.4" /><text fill="#22c55e" font-size="8px" font-weight="bold" text-anchor="middle" x="747.7" y="857.4">185</text><circle cx="596.8" cy="854.4" fill="#475569" filter="url(#glow-warn)" r="14" stroke="#f59e0b" stroke-width="2" /><rect fill="#0f172a" height="10" opacity="0.82" rx="3" width="18" x="587.8" y="849.4" /><text fill="#f59e0b" font-size="8px" font-weight="bold" text-anchor="middle" x="596.8" y="857.4">58</text><circle cx="596.1" cy="672.2" fill="#0ea5e9" filter="url(#glow-warn)" r="20" stroke="#f59e0b" stroke-width="2" /><rect fill="#0f172a" height="11" opacity="0.82" rx="3" width="20" x="586.1" y="666.7" /><text fill="#f59e0b" font-size="9px" font-weight="bold" text-anchor="middle" x="596.1" y="675.5">65</text><circle cx="490.0" cy="747.7" fill="#475569" r="14" stroke="#475569" stroke-width="0" /><rect fill="#0f172a" height="10" opacity="0.82" rx="3" width="18" x="481.0" y="742.7" /><text fill="#f59e0b" font-size="8px" font-weight="bold" text-anchor="middle" x="490.0" y="750.7">65</text><circle cx="490.0" cy="596.8" fill="#475569" r="14" stroke="#475569" stroke-width="0" /><rect fill="#0f172a" height="10" opacity="0.82" rx="3" width="18" x="481.0" y="591.8" /><text fill="#f59e0b" font-size="8px" font-weight="bold" text-anchor="middle" x="490.0" y="599.8">65</text><circle cx="643.1" cy="601.9" fill="#475569" filter="url(#glow-crit)" r="14" stroke="#ef4444" stroke-width="3" /><rect fill="#0f172a" height="10" opacity="0.82" rx="3" width="18" x="634.1" y="596.9" /><text fill="#ef4444" font-size="8px" font-weight="bold" text-anchor="middle" x="643.1" y="604.9">22</text></g><g id="labels"><rect fill="#0f172a" height="16" opacity="0.7" rx="5" width="76" x="634.2" y="703.2" /><text fill="#e2e8f0" font-size="11px" text-anchor="middle" x="672.2" y="716.2">Coordinator</text><rect fill="#0f172a" height="16" opacity="0.7" rx="5" width="82" x="770.0" y="617.1" /><text fill="#e2e8f0" font-size="11px" text-anchor="start" x="774.0" y="630.1">TRADFRI Bulb</text><rect fill="#0f172a" height="16" opacity="0.7" rx="5" width="76" x="881.9" y="570.7" /><text fill="#e2e8f0" font-size="11px" text-anchor="start" x="885.9" y="583.7">Hall Outlet</text><rect fill="#0f172a" height="16" opacity="0.7" rx="5" width="94" x="843.4" y="397.1" /><text fill="#e2e8f0" font-size="11px" text-anchor="start" x="847.4" y="410.1">Bedroom Sensor</text><rect fill="#0f172a" height="16" opacity="0.7" rx="5" width="88" x="977.4" y="720.7" /><text fill="#e2e8f0" font-size="11px" text-anchor="start" x="981.4" y="733.7">Living Motion</text><rect fill="#0f172a" height="16" opacity="0.7" rx="5" width="76" x="634.2" y="769.3" /><text fill="#e2e8f0" font-size="11px" text-anchor="middle" x="672.2" y="782.3">IKEA Outlet</text><rect fill="#0f172a" height="16" opacity="0.7" rx="5" width="112" x="754.4" y="867.3" /><text fill="#e2e8f0" font-size="11px" text-anchor="start" x="758.4" y="880.3">Aqara Door Sensor</text><rect fill="#0f172a" height="16" opacity="0.7" rx="5" width="70" x="520.0" y="867.3" /><text fill="#e2e8f0" font-size="11px" text-anchor="end" x="586.0" y="880.3">Hue Motion</text><rect fill="#0f172a" height="16" opacity="0.7" rx="5" width="88" x="478.1" y="659.2" /><text fill="#e2e8f0" font-size="11px" text-anchor="end" x="562.1" y="672.2">Sonoff ZBMINI</text><rect fill="#0f172a" height="16" opacity="0.7" rx="5" width="70" x="398.1" y="745.4" /><text fill="#e2e8f0" font-size="11px" text-anchor="end" x="464.1" y="758.4">Aqara Temp</text><rect fill="#0f172a" height="16" opacity="0.7" rx="5" width="100" x="368.1" y="573.0" /><text fill="#e2e8f0" font-size="11px" text-anchor="end" x="464.1" y="586.0">Aqara Vibration</text><rect fill="#0f172a" height="16" opacity="0.7" rx="5" width="94" x="542.4" y="563.0" /><text fill="#e2e8f0" font-size="11px" text-anchor="end" x="632.4" y="576.0">Smoke Detector</text></g><g id="lqi-labels"><rect fill="#0f172a" height="13" opacity="0.85" rx="4" width="31" x="656.7" y="712.7" /><text fill="#22c55e" font-size="11px" opacity="0.95" text-anchor="middle" x="672.2" y="722.7">212</text><rect fill="#0f172a" height="13" opacity="0.85" rx="4" width="31" x="705.8" y="808.3" /><text fill="#22c55e" font-size="11px" opacity="0.95" text-anchor="middle" x="721.3" y="818.3">185</text><rect fill="#0f172a" height="13" opacity="0.85" rx="4" width="24" x="611.2" y="808.3" /><text fill="#f59e0b" font-size="11px" opacity="0.95" text-anchor="middle" x="623.2" y="818.3">58</text><rect fill="#0f172a" height="13" opacity="0.85" rx="4" width="24" x="610.8" y="663.2" /><text fill="#f59e0b" font-size="11px" opacity="0.95" text-anchor="middle" x="622.8" y="673.2">65</text><rect fill="#0f172a" height="13" opacity="0.85" rx="4" width="31" x="511.6" y="712.3" /><text fill="#22c55e" font-size="11px" opacity="0.95" text-anchor="middle" x="527.1" y="722.3">176</text><rect fill="#0f172a" height="13" opacity="0.85" rx="4" width="31" x="511.6" y="614.2" /><text fill="#22c55e" font-size="11px" opacity="0.95" text-anchor="middle" x="527.1" y="624.2">142</text><rect fill="#0f172a" height="13" opacity="0.85" rx="4" width="31" x="702.4" y="644.3" /><text fill="#22c55e" font-size="11px" opacity="0.95" text-anchor="middle" x="717.9" y="654.3">155</text><rect fill="#0f172a" height="13" opacity="0.85" rx="4" width="24" x="641.3" y="617.5" /><text fill="#ef4444" font-size="11px" opacity="0.95" text-anchor="middle" x="653.3" y="627.5">22</text><rect fill="#0f172a" height="13" opacity="0.85" rx="4" width="24" x="803.3" y="604.0" /><text fill="#f59e0b" font-size="11px" opacity="0.95" text-anchor="middle" x="815.3" y="614.0">70</text><rect fill="#0f172a" height="13" opacity="0.85" rx="4" width="31" x="824.2" y="481.6" /><text fill="#22c55e" font-size="11px" opacity="0.95" text-anchor="middle" x="839.7" y="491.6">195</text><rect fill="#0f172a" height="13" opacity="0.85" rx="4" width="31" x="903.6" y="673.2" /><text fill="#22c55e" font-size="11px" opacity="0.95" text-anchor="middle" x="919.1" y="683.2">210</text></g><g id="legend"><rect fill="#1e293b" height="290" rx="8" stroke="#334155" stroke-width="1" width="280" x="20" y="20" /><text fill="#e2e8f0" font-size="12px" font-weight="bold" text-anchor="middle" x="160" y="38">Legend</text><circle cx="36" cy="59" fill="#f59e0b" r="9" /><text fill="#e2e8f0" font-size="11px" x="50" y="62">Coordinator</text><circle cx="36" cy="83" fill="#0ea5e9" r="7" /><text fill="#e2e8f0" font-size="11px" x="50" y="86">Router</text><circle cx="36" cy="107" fill="#475569" r="5" /><text fill="#e2e8f0" font-size="11px" x="50" y="110">End device</text><circle cx="36" cy="137" fill="#0ea5e9" filter="url(#glow-warn)" r="7" stroke="#f59e0b" stroke-width="2" /><text fill="#f59e0b" font-size="11px" x="50" y="140">Weak node  (LQI &lt; 80)</text><circle cx="36" cy="161" fill="#0ea5e9" filter="url(#glow-crit)" r="7" stroke="#ef4444" stroke-width="2" /><text fill="#ef4444" font-size="11px" x="50" y="164">Critical node  (LQI &lt; 30)</text><circle cx="36" cy="191" fill="#0ea5e9" r="7" /><rect fill="#0f172a" height="10" opacity="0.82" rx="3" width="14" x="29.0" y="186" /><text fill="#22c55e" font-size="8px" font-weight="bold" text-anchor="middle" x="36" y="194">42</text><text fill="#64748b" font-size="11px" x="50" y="194">path min LQI (worst hop)</text><line stroke="#22c55e" stroke-width="2" x1="28" x2="46" y1="214" y2="214" /><text fill="#e2e8f0" font-size="11px" x="52" y="218">LQI ≥ 80  (good)</text><line stroke="#f59e0b" stroke-width="2" x1="28" x2="46" y1="234" y2="234" /><text fill="#e2e8f0" font-size="11px" x="52" y="238">LQI 30–80  (weak)</text><line stroke="#ef4444" stroke-width="2" x1="28" x2="46" y1="254" y2="254" /><text fill="#e2e8f0" font-size="11px" x="52" y="258">LQI &lt; 30  (critical)</text></g></svg>