<?xml version="1.0" encoding="utf-8" ?>
<svg baseProfile="full" font-family="system-ui, -apple-system, sans-serif" height="1640" version="1.1" width="1640" xmlns="http://www.w3.org/2000/svg" xmlns:ev="http://www.w3.org/2001/xml-events" xmlns:xlink="http://www.w3.org/1999/xlink"><defs><filter height="220%" id="glow-warn" width="220%" x="-60%" y="-60%"><feGaussianBlur in="SourceAlpha" result="blur" stdDeviation="6" /><feFlood flood-color="#f59e0b" flood-opacity="0.85" result="flood" /><feComposite in="flood" in2="blur" operator="in" result="glow" /><feMerge><feMergeNode in="glow" /><feMergeNode in="SourceGraphic" /></feMerge></filter><filter height="220%" id="glow-crit" width="220%" x="-60%" y="-60%"><feGaussianBlur in="SourceAlpha" result="blur" stdDeviation="8" /><feFlood flood-color="#ef4444" flood-opacity="0.85" result="flood" /><feComposite in="flood" in2="blur" operator="in" result="glow" /><feMerge><feMergeNode in="glow" /><feMergeNode in="SourceGraphic" /></feMerge></filter></defs><rect fill="#0f172a" height="1640" width="1640" x="0" y="0" /><g id="ring-fills"><circle cx="820" cy="820" fill="#1e0e0e" r="480" stroke="none" /><circle cx="820" cy="820" fill="#161614" r="320" stroke="none" /><circle cx="820" cy="820" fill="#0e1e1a" r="160" stroke="none" /><circle cx="820" cy="820" fill="#0f172a" r="38" stroke="none" /></g><g id="rings"><circle cx="820" cy="820" fill="none" r="160" stroke="#1a2e24" stroke-dasharray="5,4" stroke-width="1" /><text fill="#7ec4a8" font-size="12px" font-weight="bold" letter-spacing="0.5" text-anchor="middle" x="820" y="674">Hop 1</text><circle cx="820" cy="820" fill="none" r="320" stroke="#24241f" stroke-dasharray="5,4" stroke-width="1" /><text fill="#a1a799" font-size="12px" font-weight="bold" letter-spacing="0.5" text-anchor="middle" x="820" y="514">Hop 2</text><circle cx="820" cy="820" fill="none" r="480" stroke="#2e1a1a" stroke-dasharray="5,4" stroke-width="1" /><text fill="#c48a8a" font-size="12px" font-weight="bold" letter-spacing="0.5" text-anchor="middle" x="820" y="354">Hop 3</text></g><g id="edges" opacity="0.55"><line stroke="#22c55e" stroke-width="3.13" x1="882.5" x2="820.0" y1="770.1" y2="820.0" /><line stroke="#22c55e" stroke-width="2.83" x1="924.1" x2="882.5" y1="603.8" y2="770.1" /><line stroke="#f59e0b" stroke-width="1.44" x1="1054.0" x2="882.5" y1="766.6" y2="770.1" /><line stroke="#f59e0b" stroke-width="1.51" x1="854.7" x2="820.0" y1="892.1" y2="820.0" /><line stroke="#22c55e" stroke-width="2.73" x1="1007.6" x2="854.7" y1="969.6" y2="892.1" /><line stroke="#22c55e" stroke-width="2.36" x1="820.0" x2="854.7" y1="1060.0" y2="892.1" /><line stroke="#22c55e" stroke-width="2.5" x1="742.0" x2="820.0" y1="837.8" y2="820.0" /><line stroke="#ef4444" stroke-width="1.04" x1="785.3" x2="820.0" y1="747.9" y2="820.0" /><line stroke="#f59e0b" stroke-width="1.57" x1="586.0" x2="742.0" y1="873.4" y2="837.8" /><line stroke="#22c55e" stroke-width="2.94" x1="507.3" x2="586.0" y1="1069.4" y2="873.4" /><line stroke="#22c55e" stroke-width="3.11" x1="430.0" x2="586.0" y1="731.0" y2="873.4" /></g><g id="lqi-labels"><rect fill="#0f172a" height="13" opacity="0.85" rx="4" width="31" x="835.8" y="786.1" /><text fill="#22c55e" font-size="11px" opacity="0.95" text-anchor="middle" x="851.3" y="796.1">212</text><rect fill="#0f172a" height="13" opacity="0.85" rx="4" width="31" x="887.8" y="677.9" /><text fill="#22c55e" font-size="11px" opacity="0.95" text-anchor="middle" x="903.3" y="687.9">185</text><rect fill="#0f172a" height="13" opacity="0.85" rx="4" width="24" x="956.3" y="759.4" /><text fill="#f59e0b" font-size="11px" opacity="0.95" text-anchor="middle" x="968.3" y="769.4">58</text><rect fill="#0f172a" height="13" opacity="0.85" rx="4" width="24" x="825.4" y="847.0" /><text fill="#f59e0b" font-size="11px" opacity="0.95" text-anchor="middle" x="837.4" y="857.0">65</text><rect fill="#0f172a" height="13" opacity="0.85" rx="4" width="31" x="915.7" y="921.9" /><text fill="#22c55e" font-size="11px" opacity="0.95" text-anchor="middle" x="931.2" y="931.9">176</text><rect fill="#0f172a" height="13" opacity="0.85" rx="4" width="31" x="821.9" y="967.0" /><text fill="#22c55e" font-size="11px" opacity="0.95" text-anchor="middle" x="837.4" y="977.0">142</text><rect fill="#0f172a" height="13" opacity="0.85" rx="4" width="31" x="765.5" y="819.9" /><text fill="#22c55e" font-size="11px" opacity="0.95" text-anchor="middle" x="781.0" y="829.9">155</text><rect fill="#0f172a" height="13" opacity="0.85" rx="4" width="24" x="790.6" y="775.0" /><text fill="#ef4444" font-size="11px" opacity="0.95" text-anchor="middle" x="802.6" y="785.0">22</text><rect fill="#0f172a" height="13" opacity="0.85" rx="4" width="24" x="652.0" y="846.6" /><text fill="#f59e0b" font-size="11px" opacity="0.95" text-anchor="middle" x="664.0" y="856.6">70</text><rect fill="#0f172a" height="13" opacity="0.85" rx="4" width="31" x="531.1" y="962.4" /><text fill="#22c55e" font-size="11px" opacity="0.95" text-anchor="middle" x="546.6" y="972.4">195</text><rect fill="#0f172a" height="13" opacity="0.85" rx="4" width="31" x="492.5" y="793.2" /><text fill="#22c55e" font-size="11px" opacity="0.95" text-anchor="middle" x="508.0" y="803.2">210</text></g><g id="nodes"><circle cx="820.0" cy="820.0" fill="#f59e0b" r="28" stroke="#f59e0b" stroke-width="0" /><circle cx="882.5" cy="770.1" fill="#0ea5e9" r="20" stroke="#0ea5e9" stroke-width="0" /><circle cx="924.1" cy="603.8" fill="#475569" r="14" stroke="#475569" stroke-width="0" /><circle cx="1054.0" cy="766.6" fill="#475569" filter="url(#glow-warn)" r="14" stroke="#f59e0b" stroke-width="2" /><circle cx="854.7" cy="892.1" fill="#0ea5e9" filter="url(#glow-warn)" r="20" stroke="#f59e0b" stroke-width="2" /><circle cx="1007.6" cy="969.6" fill="#475569" r="14" stroke="#475569" stroke-width="0" /><rect fill="#0f172a" height="10" opacity="0.82" rx="3" width="18" x="998.6" y="964.6" /><text fill="#f59e0b" font-size="8px" font-weight="bold" text-anchor="middle" x="1007.6" y="972.6">65</text><circle cx="820.0" cy="1060.0" fill="#475569" r="14" stroke="#475569" stroke-width="0" /><rect fill="#0f172a" height="10" opacity="0.82" rx="3" width="18" x="811.0" y="1055.0" /><text fill="#f59e0b" font-size="8px" font-weight="bold" text-anchor="middle" x="820.0" y="1063.0">65</text><circle cx="742.0" cy="837.8" fill="#0ea5e9" r="20" stroke="#0ea5e9" stroke-width="0" /><circle cx="586.0" cy="873.4" fill="#0ea5e9" filter="url(#glow-warn)" r="20" stroke="#f59e0b" stroke-width="2" /><circle cx="507.3" cy="1069.4" fill="#475569" r="14" stroke="#475569" stroke-width="0" /><rect fill="#0f172a" height="10" opacity="0.82" rx="3" width="18" x="498.3" y="1064.4" /><text fill="#f59e0b" font-size="8px" font-weight="bold" text-anchor="middle" x="507.3" y="1072.4">70</text><circle cx="430.0" cy="731.0" fill="#475569" r="14" stroke="#475569" stroke-width="0" /><rect fill="#0f172a" height="10" opacity="0.82" rx="3" width="18" x="421.0" y="726.0" /><text fill="#f59e0b" font-size="8px" font-weight="bold" text-anchor="middle" x="430.0" y="734.0">70</text><circle cx="785.3" cy="747.9" fill="#475569" filter="url(#glow-crit)" r="14" stroke="#ef4444" stroke-width="3" /></g><g id="labels"><rect fill="#0f172a" height="16" opacity="0.7" rx="5" width="76" x="782.0" y="851.0" /><text fill="#e2e8f0" font-size="11px" text-anchor="middle" x="820.0" y="864.0">Coordinator</text><rect fill="#0f172a" height="16" opacity="0.7" rx="5" width="76" x="905.1" y="735.9" /><text fill="#e2e8f0" font-size="11px" text-anchor="start" x="909.1" y="748.9">IKEA Outlet</text><rect fill="#0f172a" height="16" opacity="0.7" rx="5" width="112" x="932.3" y="565.5" /><text fill="#e2e8f0" font-size="11px" text-anchor="start" x="936.3" y="578.5">Aqara Door Sensor</text><rect fill="#0f172a" height="16" opacity="0.7" rx="5" width="70" x="1077.3" y="747.4" /><text fill="#e2e8f0" font-size="11px" text-anchor="start" x="1081.3" y="760.4">Hue Motion</text><rect fill="#0f172a" height="16" opacity="0.7" rx="5" width="88" x="865.5" y="909.7" /><text fill="#e2e8f0" font-size="11px" text-anchor="start" x="869.5" y="922.7">Sonoff ZBMINI</text><rect fill="#0f172a" height="16" opacity="0.7" rx="5" width="70" x="1025.5" y="974.1" /><text fill="#e2e8f0" font-size="11px" text-anchor="start" x="1029.5" y="987.1">Aqara Temp</text><rect fill="#0f172a" height="16" opacity="0.7" rx="5" width="100" x="770.0" y="1075.0" /><text fill="#e2e8f0" font-size="11px" text-anchor="middle" x="820.0" y="1088.0">Aqara Vibration</text><rect fill="#0f172a" height="16" opacity="0.7" rx="5" width="82" x="630.9" y="832.4" /><text fill="#e2e8f0" font-size="11px" text-anchor="end" x="708.9" y="845.4">TRADFRI Bulb</text><rect fill="#0f172a" height="16" opacity="0.7" rx="5" width="76" x="480.9" y="868.0" /><text fill="#e2e8f0" font-size="11px" text-anchor="end" x="552.9" y="881.0">Hall Outlet</text><rect fill="#0f172a" height="16" opacity="0.7" rx="5" width="94" x="395.4" y="1073.9" /><text fill="#e2e8f0" font-size="11px" text-anchor="end" x="485.4" y="1086.9">Bedroom Sensor</text><rect fill="#0f172a" height="16" opacity="0.7" rx="5" width="88" x="318.7" y="711.8" /><text fill="#e2e8f0" font-size="11px" text-anchor="end" x="402.7" y="724.8">Living Motion</text><rect fill="#0f172a" height="16" opacity="0.7" rx="5" width="94" x="683.1" y="709.7" /><text fill="#e2e8f0" font-size="11px" text-anchor="end" x="773.1" y="722.7">Smoke Detector</text></g><g id="legend"><rect fill="#1e293b" height="290" rx="8" stroke="#334155" stroke-width="1" width="220" x="20" y="20" /><text fill="#e2e8f0" font-size="12px" font-weight="bold" text-anchor="middle" x="130" y="38">Legend</text><circle cx="36" cy="59" fill="#f59e0b" r="9" /><text fill="#e2e8f0" font-size="11px" x="50" y="62">Coordinator</text><circle cx="36" cy="83" fill="#0ea5e9" r="7" /><text fill="#e2e8f0" font-size="11px" x="50" y="86">Router</text><circle cx="36" cy="107" fill="#475569" r="5" /><text fill="#e2e8f0" font-size="11px" x="50" y="110">End device</text><circle cx="36" cy="137" fill="#0ea5e9" filter="url(#glow-warn)" r="7" stroke="#f59e0b" stroke-width="2" /><text fill="#f59e0b" font-size="11px" x="50" y="140">Weak node  (LQI &lt; 80)</text><circle cx="36" cy="161" fill="#0ea5e9" filter="url(#glow-crit)" r="7" stroke="#ef4444" stroke-width="2" /><text fill="#ef4444" font-size="11px" x="50" y="164">Critical node  (LQI &lt; 30)</text><circle cx="36" cy="191" fill="#0ea5e9" r="7" /><rect fill="#0f172a" height="10" opacity="0.82" rx="3" width="14" x="29.0" y="186" /><text fill="#22c55e" font-size="8px" font-weight="bold" text-anchor="middle" x="36" y="194">42</text><text fill="#64748b" font-size="11px" x="50" y="194">upstream bottleneck (hidden weak hop)</text><line stroke="#22c55e" stroke-width="2" x1="28" x2="46" y1="214" y2="214" /><text fill="#e2e8f0" font-size="11px" x="52" y="218">LQI ≥ 80  (good)</text><line stroke="#f59e0b" stroke-width="2" x1="28" x2="46" y1="234" y2="234" /><text fill="#e2e8f0" font-size="11px" x="52" y="238">LQI 30–80  (weak)</text><line stroke="#ef4444" stroke-width="2" x1="28" x2="46" y1="254" y2="254" /><text fill="#e2e8f0" font-size="11px" x="52" y="258">LQI &lt; 30  (critical)</text></g></svg>