<?xml version="1.0" encoding="utf-8" ?>
<svg baseProfile="full" font-family="system-ui, -apple-system, sans-serif" height="1640" version="1.1" width="1640" xmlns="http://www.w3.org/2000/svg" xmlns:ev="http://www.w3.org/2001/xml-events" xmlns:xlink="http://www.w3.org/1999/xlink"><defs><filter height="220%" id="glow-warn" width="220%" x="-60%" y="-60%"><feGaussianBlur in="SourceAlpha" result="blur" stdDeviation="6" /><feFlood flood-color="#f59e0b" flood-opacity="0.85" result="flood" /><feComposite in="flood" in2="blur" operator="in" result="glow" /><feMerge><feMergeNode in="glow" /><feMergeNode in="SourceGraphic" /></feMerge></filter><filter height="220%" id="glow-crit" width="220%" x="-60%" y="-60%"><feGaussianBlur in="SourceAlpha" result="blur" stdDeviation="8" /><feFlood flood-color="#ef4444" flood-opacity="0.85" result="flood" /><feComposite in="flood" in2="blur" operator="in" result="glow" /><feMerge><feMergeNode in="glow" /><feMergeNode in="SourceGraphic" /></feMerge></filter></defs><rect fill="#0f172a" height="1640" width="1640" x="0" y="0" /><g id="ring-fills"><circle cx="820" cy="820" fill="#1e0e0e" r="480" stroke="none" /><circle cx="820" cy="820" fill="#161614" r="320" stroke="none" /><circle cx="820" cy="820" fill="#0e1e1a" r="160" stroke="none" /><circle cx="820" cy="820" fill="#0f172a" r="38" stroke="none" /></g><g id="rings"><circle cx="820" cy="820" fill="none" r="160" stroke="#1a2e24" stroke-dasharray="5,4" stroke-width="1" /><text fill="#7ec4a8" font-size="12px" font-weight="bold" letter-spacing="0.5" text-anchor="middle" x="820" y="674">Hop 1</text><circle cx="820" cy="820" fill="none" r="320" stroke="#24241f" stroke-dasharray="5,4" stroke-width="1" /><text fill="#a1a799" font-size="12px" font-weight="bold" letter-spacing="0.5" text-anchor="middle" x="820" y="514">Hop 2</text><circle cx="820" cy="820" fill="none" r="480" stroke="#2e1a1a" stroke-dasharray="5,4" stroke-width="1" /><text fill="#c48a8a" font-size="12px" font-weight="bold" letter-spacing="0.5" text-anchor="middle" x="820" y="354">Hop 3</text></g><g id="edges" opacity="0.55"><line stroke="#22c55e" stroke-width="3.13" x1="820.0" x2="820.0" y1="900.0" y2="820.0" /><line stroke="#22c55e" stroke-width="2.83" x1="911.8" x2="820.0" y1="1041.7" y2="900.0" /><line stroke="#f59e0b" stroke-width="1.44" x1="728.2" x2="820.0" y1="1041.7" y2="900.0" /><line stroke="#f59e0b" stroke-width="1.51" x1="740.0" x2="820.0" y1="820.0" y2="820.0" /><line stroke="#22c55e" stroke-width="2.73" x1="598.3" x2="740.0" y1="911.8" y2="820.0" /><line stroke="#22c55e" stroke-width="2.36" x1="598.3" x2="740.0" y1="728.2" y2="820.0" /><line stroke="#22c55e" stroke-width="2.5" x1="893.9" x2="820.0" y1="789.4" y2="820.0" /><line stroke="#ef4444" stroke-width="1.04" x1="789.4" x2="820.0" y1="746.1" y2="820.0" /><line stroke="#f59e0b" stroke-width="1.57" x1="1041.7" x2="893.9" y1="728.2" y2="789.4" /><line stroke="#22c55e" stroke-width="2.94" x1="1042.2" x2="1041.7" y1="487.4" y2="728.2" /><line stroke="#22c55e" stroke-width="3.11" x1="1212.3" x2="1041.7" y1="898.0" y2="728.2" /></g><g id="nodes"><circle cx="820.0" cy="820.0" fill="#f59e0b" r="28" stroke="#f59e0b" stroke-width="0" /><circle cx="893.9" cy="789.4" fill="#0ea5e9" r="20" stroke="#0ea5e9" stroke-width="0" /><rect fill="#0f172a" height="11" opacity="0.82" rx="3" width="26" x="880.9" y="783.9" /><text fill="#22c55e" font-size="9px" font-weight="bold" text-anchor="middle" x="893.9" y="792.7">155</text><circle cx="1041.7" cy="728.2" fill="#0ea5e9" filter="url(#glow-warn)" r="20" stroke="#f59e0b" stroke-width="2" /><rect fill="#0f172a" height="11" opacity="0.82" rx="3" width="20" x="1031.7" y="722.7" /><text fill="#f59e0b" font-size="9px" font-weight="bold" text-anchor="middle" x="1041.7" y="731.5">70</text><circle cx="1042.2" cy="487.4" fill="#475569" r="14" stroke="#475569" stroke-width="0" /><rect fill="#0f172a" height="10" opacity="0.82" rx="3" width="18" x="1033.2" y="482.4" /><text fill="#f59e0b" font-size="8px" font-weight="bold" text-anchor="middle" x="1042.2" y="490.4">70</text><circle cx="1212.3" cy="898.0" fill="#475569" r="14" stroke="#475569" stroke-width="0" /><rect fill="#0f172a" height="10" opacity="0.82" rx="3" width="18" x="1203.3" y="893.0" /><text fill="#f59e0b" font-size="8px" font-weight="bold" text-anchor="middle" x="1212.3" y="901.0">70</text><circle cx="820.0" cy="900.0" fill="#0ea5e9" r="20" stroke="#0ea5e9" stroke-width="0" /><rect fill="#0f172a" height="11" opacity="0.82" rx="3" width="26" x="807.0" y="894.5" /><text fill="#22c55e" font-size="9px" font-weight="bold" text-anchor="middle" x="820.0" y="903.3">212</text><circle cx="911.8" cy="1041.7" fill="#475569" r="14" stroke="#475569" stroke-width="0" /><rect fill="#0f172a" height="10" opacity="0.82" rx="3" width="23" x="900.3" y="1036.7" /><text fill="#22c55e" font-size="8px" font-weight="bold" text-anchor="middle" x="911.8" y="1044.7">185</text><circle cx="728.2" cy="1041.7" fill="#475569" filter="url(#glow-warn)" r="14" stroke="#f59e0b" stroke-width="2" /><rect fill="#0f172a" height="10" opacity="0.82" rx="3" width="18" x="719.2" y="1036.7" /><text fill="#f59e0b" font-size="8px" font-weight="bold" text-anchor="middle" x="728.2" y="1044.7">58</text><circle cx="740.0" cy="820.0" fill="#0ea5e9" filter="url(#glow-warn)" r="20" stroke="#f59e0b" stroke-width="2" /><rect fill="#0f172a" height="11" opacity="0.82" rx="3" width="20" x="730.0" y="814.5" /><text fill="#f59e0b" font-size="9px" font-weight="bold" text-anchor="middle" x="740.0" y="823.3">65</text><circle cx="598.3" cy="911.8" fill="#475569" r="14" stroke="#475569" stroke-width="0" /><rect fill="#0f172a" height="10" opacity="0.82" rx="3" width="18" x="589.3" y="906.8" /><text fill="#f59e0b" font-size="8px" font-weight="bold" text-anchor="middle" x="598.3" y="914.8">65</text><circle cx="598.3" cy="728.2" fill="#475569" r="14" stroke="#475569" stroke-width="0" /><rect fill="#0f172a" height="10" opacity="0.82" rx="3" width="18" x="589.3" y="723.2" /><text fill="#f59e0b" font-size="8px" font-weight="bold" text-anchor="middle" x="598.3" y="731.2">65</text><circle cx="789.4" cy="746.1" fill="#475569" filter="url(#glow-crit)" r="14" stroke="#ef4444" stroke-width="3" /><rect fill="#0f172a" height="10" opacity="0.82" rx="3" width="18" x="780.4" y="741.1" /><text fill="#ef4444" font-size="8px" font-weight="bold" text-anchor="middle" x="789.4" y="749.1">22</text></g><g id="labels"><rect fill="#0f172a" height="16" opacity="0.7" rx="5" width="76" x="782.0" y="851.0" /><text fill="#e2e8f0" font-size="11px" text-anchor="middle" x="820.0" y="864.0">Coordinator</text><rect fill="#0f172a" height="16" opacity="0.7" rx="5" width="82" x="921.3" y="763.4" /><text fill="#e2e8f0" font-size="11px" text-anchor="start" x="925.3" y="776.4">TRADFRI Bulb</text><rect fill="#0f172a" height="16" opacity="0.7" rx="5" width="76" x="1069.1" y="702.1" /><text fill="#e2e8f0" font-size="11px" text-anchor="start" x="1073.1" y="715.1">Hall Outlet</text><rect fill="#0f172a" height="16" opacity="0.7" rx="5" width="94" x="1053.8" y="451.1" /><text fill="#e2e8f0" font-size="11px" text-anchor="start" x="1057.8" y="464.1">Bedroom Sensor</text><rect fill="#0f172a" height="16" opacity="0.7" rx="5" width="88" x="1235.8" y="890.5" /><text fill="#e2e8f0" font-size="11px" text-anchor="start" x="1239.8" y="903.5">Living Motion</text><rect fill="#0f172a" height="16" opacity="0.7" rx="5" width="76" x="782.0" y="921.0" /><text fill="#e2e8f0" font-size="11px" text-anchor="middle" x="820.0" y="934.0">IKEA Outlet</text><rect fill="#0f172a" height="16" opacity="0.7" rx="5" width="112" x="918.6" y="1054.6" /><text fill="#e2e8f0" font-size="11px" text-anchor="start" x="922.6" y="1067.6">Aqara Door Sensor</text><rect fill="#0f172a" height="16" opacity="0.7" rx="5" width="70" x="651.4" y="1054.6" /><text fill="#e2e8f0" font-size="11px" text-anchor="end" x="717.4" y="1067.6">Hue Motion</text><rect fill="#0f172a" height="16" opacity="0.7" rx="5" width="88" x="622.0" y="807.0" /><text fill="#e2e8f0" font-size="11px" text-anchor="end" x="706.0" y="820.0">Sonoff ZBMINI</text><rect fill="#0f172a" height="16" opacity="0.7" rx="5" width="70" x="506.4" y="909.6" /><text fill="#e2e8f0" font-size="11px" text-anchor="end" x="572.4" y="922.6">Aqara Temp</text><rect fill="#0f172a" height="16" opacity="0.7" rx="5" width="100" x="476.4" y="704.4" /><text fill="#e2e8f0" font-size="11px" text-anchor="end" x="572.4" y="717.4">Aqara Vibration</text><rect fill="#0f172a" height="16" opacity="0.7" rx="5" width="94" x="688.7" y="707.2" /><text fill="#e2e8f0" font-size="11px" text-anchor="end" x="778.7" y="720.2">Smoke Detector</text></g><g id="lqi-labels"><rect fill="#0f172a" height="13" opacity="0.85" rx="4" width="31" x="804.5" y="863.0" /><text fill="#22c55e" font-size="11px" opacity="0.95" text-anchor="middle" x="820.0" y="873.0">212</text><rect fill="#0f172a" height="13" opacity="0.85" rx="4" width="31" x="864.2" y="983.1" /><text fill="#22c55e" font-size="11px" opacity="0.95" text-anchor="middle" x="879.7" y="993.1">185</text><rect fill="#0f172a" height="13" opacity="0.85" rx="4" width="24" x="748.3" y="983.1" /><text fill="#f59e0b" font-size="11px" opacity="0.95" text-anchor="middle" x="760.3" y="993.1">58</text><rect fill="#0f172a" height="13" opacity="0.85" rx="4" width="24" x="756.0" y="811.0" /><text fill="#f59e0b" font-size="11px" opacity="0.95" text-anchor="middle" x="768.0" y="821.0">65</text><rect fill="#0f172a" height="13" opacity="0.85" rx="4" width="31" x="632.4" y="870.7" /><text fill="#22c55e" font-size="11px" opacity="0.95" text-anchor="middle" x="647.9" y="880.7">176</text><rect fill="#0f172a" height="13" opacity="0.85" rx="4" width="31" x="632.4" y="751.3" /><text fill="#22c55e" font-size="11px" opacity="0.95" text-anchor="middle" x="647.9" y="761.3">142</text><rect fill="#0f172a" height="13" opacity="0.85" rx="4" width="31" x="852.5" y="791.1" /><text fill="#22c55e" font-size="11px" opacity="0.95" text-anchor="middle" x="868.0" y="801.1">155</text><rect fill="#0f172a" height="13" opacity="0.85" rx="4" width="24" x="788.1" y="763.0" /><text fill="#ef4444" font-size="11px" opacity="0.95" text-anchor="middle" x="800.1" y="773.0">22</text><rect fill="#0f172a" height="13" opacity="0.85" rx="4" width="24" x="978.0" y="740.6" /><text fill="#f59e0b" font-size="11px" opacity="0.95" text-anchor="middle" x="990.0" y="750.6">70</text><rect fill="#0f172a" height="13" opacity="0.85" rx="4" width="31" x="1026.6" y="562.7" /><text fill="#22c55e" font-size="11px" opacity="0.95" text-anchor="middle" x="1042.1" y="572.7">195</text><rect fill="#0f172a" height="13" opacity="0.85" rx="4" width="31" x="1137.1" y="829.6" /><text fill="#22c55e" font-size="11px" opacity="0.95" text-anchor="middle" x="1152.6" y="839.6">210</text></g><g id="legend"><rect fill="#1e293b" height="290" rx="8" stroke="#334155" stroke-width="1" width="280" x="20" y="20" /><text fill="#e2e8f0" font-size="12px" font-weight="bold" text-anchor="middle" x="160" y="38">Legend</text><circle cx="36" cy="59" fill="#f59e0b" r="9" /><text fill="#e2e8f0" font-size="11px" x="50" y="62">Coordinator</text><circle cx="36" cy="83" fill="#0ea5e9" r="7" /><text fill="#e2e8f0" font-size="11px" x="50" y="86">Router</text><circle cx="36" cy="107" fill="#475569" r="5" /><text fill="#e2e8f0" font-size="11px" x="50" y="110">End device</text><circle cx="36" cy="137" fill="#0ea5e9" filter="url(#glow-warn)" r="7" stroke="#f59e0b" stroke-width="2" /><text fill="#f59e0b" font-size="11px" x="50" y="140">Weak node  (LQI &lt; 80)</text><circle cx="36" cy="161" fill="#0ea5e9" filter="url(#glow-crit)" r="7" stroke="#ef4444" stroke-width="2" /><text fill="#ef4444" font-size="11px" x="50" y="164">Critical node  (LQI &lt; 30)</text><circle cx="36" cy="191" fill="#0ea5e9" r="7" /><rect fill="#0f172a" height="10" opacity="0.82" rx="3" width="14" x="29.0" y="186" /><text fill="#22c55e" font-size="8px" font-weight="bold" text-anchor="middle" x="36" y="194">42</text><text fill="#64748b" font-size="11px" x="50" y="194">path min LQI (worst hop)</text><line stroke="#22c55e" stroke-width="2" x1="28" x2="46" y1="214" y2="214" /><text fill="#e2e8f0" font-size="11px" x="52" y="218">LQI ≥ 80  (good)</text><line stroke="#f59e0b" stroke-width="2" x1="28" x2="46" y1="234" y2="234" /><text fill="#e2e8f0" font-size="11px" x="52" y="238">LQI 30–80  (weak)</text><line stroke="#ef4444" stroke-width="2" x1="28" x2="46" y1="254" y2="254" /><text fill="#e2e8f0" font-size="11px" x="52" y="258">LQI &lt; 30  (critical)</text></g></svg>