<?xml version="1.0" encoding="utf-8" ?>
<svg baseProfile="full" font-family="system-ui, -apple-system, sans-serif" height="2917" version="1.1" width="2917" xmlns="http://www.w3.org/2000/svg" xmlns:ev="http://www.w3.org/2001/xml-events" xmlns:xlink="http://www.w3.org/1999/xlink"><defs><filter height="220%" id="glow-warn" width="220%" x="-60%" y="-60%"><feGaussianBlur in="SourceAlpha" result="blur" stdDeviation="6" /><feFlood flood-color="#f59e0b" flood-opacity="0.85" result="flood" /><feComposite in="flood" in2="blur" operator="in" result="glow" /><feMerge><feMergeNode in="glow" /><feMergeNode in="SourceGraphic" /></feMerge></filter><filter height="220%" id="glow-crit" width="220%" x="-60%" y="-60%"><feGaussianBlur in="SourceAlpha" result="blur" stdDeviation="8" /><feFlood flood-color="#ef4444" flood-opacity="0.85" result="flood" /><feComposite in="flood" in2="blur" operator="in" result="glow" /><feMerge><feMergeNode in="glow" /><feMergeNode in="SourceGraphic" /></feMerge></filter></defs><rect fill="#0f172a" height="2917" width="2917" x="0" y="0" /><g id="ring-fills"><circle cx="1458.9239851783025" cy="1458.9239851783025" fill="#201018" r="1118.9239851783025" stroke="none" /><circle cx="1458.9239851783025" cy="1458.9239851783025" fill="#1a171b" r="918.9239851783025" stroke="none" /><circle cx="1458.9239851783025" cy="1458.9239851783025" fill="#131d1d" r="718.9239851783025" stroke="none" /><circle cx="1458.9239851783025" cy="1458.9239851783025" fill="#0d2420" r="518.9239851783025" stroke="none" /><circle cx="1458.9239851783025" cy="1458.9239851783025" fill="#0f172a" r="38" stroke="none" /></g><g id="rings"><circle cx="1458.9239851783025" cy="1458.9239851783025" fill="none" r="518.9239851783025" stroke="#1e4035" stroke-dasharray="5,4" stroke-width="1" /><text fill="#facc15" font-size="12px" font-weight="bold" letter-spacing="0.5" text-anchor="middle" x="1458.9239851783025" y="954.0">Hop 1</text><circle cx="1458.9239851783025" cy="1458.9239851783025" fill="none" r="718.9239851783025" stroke="#283533" stroke-dasharray="5,4" stroke-width="1" /><text fill="#4ade80" font-size="12px" font-weight="bold" letter-spacing="0.5" text-anchor="middle" x="1458.9239851783025" y="754.0">Hop 2</text><circle cx="1458.9239851783025" cy="1458.9239851783025" fill="none" r="918.9239851783025" stroke="#332930" stroke-dasharray="5,4" stroke-width="1" /><text fill="#60a5fa" font-size="12px" font-weight="bold" letter-spacing="0.5" text-anchor="middle" x="1458.9239851783025" y="554.0">Hop 3</text><circle cx="1458.9239851783025" cy="1458.9239851783025" fill="none" r="1118.9239851783025" stroke="#3d1e2e" stroke-dasharray="5,4" stroke-width="1" /><text fill="#f472b6" font-size="12px" font-weight="bold" letter-spacing="0.5" text-anchor="middle" x="1458.9239851783025" y="354.0">Hop 4</text></g><g id="edges" opacity="0.55"><line stroke="#22c55e" stroke-width="2.97" x1="1695.4" x2="1458.9" y1="1565.6" y2="1458.9" /><line stroke="#22c55e" stroke-width="2.69" x1="1517.2" x2="1458.9" y1="1711.8" y2="1458.9" /><line stroke="#22c55e" stroke-width="2.5" x1="1639.0" x2="1458.9" y1="1272.1" y2="1458.9" /><line stroke="#22c55e" stroke-width="2.37" x1="1292.9" x2="1458.9" y1="1658.3" y2="1458.9" /><line stroke="#22c55e" stroke-width="2.32" x1="1201.6" x2="1458.9" y1="1492.5" y2="1458.9" /><line stroke="#22c55e" stroke-width="2.03" x1="1219.2" x2="1458.9" y1="1359.7" y2="1458.9" /><line stroke="#22c55e" stroke-width="1.88" x1="1295.8" x2="1458.9" y1="1257.1" y2="1458.9" /><line stroke="#ef4444" stroke-width="1.04" x1="1412.1" x2="1458.9" y1="1203.7" y2="1458.9" /><line stroke="#22c55e" stroke-width="2.83" x1="2066.3" x2="1695.4" y1="1578.0" y2="1565.6" /><line stroke="#22c55e" stroke-width="2.59" x1="1990.1" x2="1695.4" y1="1776.6" y2="1565.6" /><line stroke="#22c55e" stroke-width="2.39" x1="1903.7" x2="1695.4" y1="1889.4" y2="1565.6" /><line stroke="#22c55e" stroke-width="1.81" x1="1773.5" x2="1517.2" y1="1991.9" y2="1711.8" /><line stroke="#f59e0b" stroke-width="1.58" x1="1597.8" x2="1517.2" y1="2062.1" y2="1711.8" /><line stroke="#22c55e" stroke-width="1.73" x1="1409.2" x2="1517.2" y1="2075.8" y2="1711.8" /><line stroke="#f59e0b" stroke-width="1.63" x1="1815.4" x2="1639.0" y1="953.0" y2="1272.1" /><line stroke="#f59e0b" stroke-width="1.62" x1="2066.7" x2="1639.0" y1="1342.1" y2="1272.1" /><line stroke="#22c55e" stroke-width="2.58" x1="1140.3" x2="1292.9" y1="1989.5" y2="1658.3" /><line stroke="#f59e0b" stroke-width="1.65" x1="937.8" x2="1292.9" y1="1792.8" y2="1658.3" /><line stroke="#22c55e" stroke-width="2.24" x1="861.3" x2="1201.6" y1="1619.7" y2="1492.5" /><line stroke="#f59e0b" stroke-width="1.55" x1="840.6" x2="1201.6" y1="1431.7" y2="1492.5" /><line stroke="#22c55e" stroke-width="2.35" x1="2262.5" x2="2066.3" y1="1616.5" y2="1578.0" /><line stroke="#22c55e" stroke-width="1.95" x1="1706.3" x2="1815.4" y1="678.3" y2="953.0" /><line stroke="#f59e0b" stroke-width="1.48" x1="2027.3" x2="1815.4" y1="869.4" y2="953.0" /><line stroke="#f59e0b" stroke-width="1.4" x1="2178.9" x2="1815.4" y1="1068.6" y2="953.0" /><line stroke="#22c55e" stroke-width="2.1" x1="1149.6" x2="1140.3" y1="2217.2" y2="1989.5" /><line stroke="#22c55e" stroke-width="1.93" x1="935.0" x2="1140.3" y1="2088.3" y2="1989.5" /><line stroke="#22c55e" stroke-width="1.72" x1="1614.6" x2="1706.3" y1="452.0" y2="678.3" /><line stroke="#f59e0b" stroke-width="1.31" x1="1911.5" x2="1706.3" y1="546.0" y2="678.3" /></g><g id="nodes"><circle cx="1458.9" cy="1458.9" fill="#f59e0b" r="28" stroke="#f59e0b" stroke-width="0" /><circle cx="1639.0" cy="1272.1" fill="#0ea5e9" r="20" stroke="#0ea5e9" stroke-width="0" /><rect fill="#0f172a" height="11" opacity="0.82" rx="3" width="26" x="1626.0" y="1266.6" /><text fill="#22c55e" font-size="9px" font-weight="bold" text-anchor="middle" x="1639.0" y="1275.4">155</text><circle cx="1815.4" cy="953.0" fill="#0ea5e9" filter="url(#glow-warn)" r="20" stroke="#f59e0b" stroke-width="2" /><rect fill="#0f172a" height="11" opacity="0.82" rx="3" width="20" x="1805.4" y="947.5" /><text fill="#f59e0b" font-size="9px" font-weight="bold" text-anchor="middle" x="1815.4" y="956.3">76</text><circle cx="1706.3" cy="678.3" fill="#0ea5e9" r="20" stroke="#0ea5e9" stroke-width="0" /><rect fill="#0f172a" height="11" opacity="0.82" rx="3" width="20" x="1696.3" y="672.8" /><text fill="#f59e0b" font-size="9px" font-weight="bold" text-anchor="middle" x="1706.3" y="681.6">76</text><circle cx="1614.6" cy="452.0" fill="#475569" r="14" stroke="#475569" stroke-width="0" /><rect fill="#0f172a" height="10" opacity="0.82" rx="3" width="18" x="1605.6" y="447.0" /><text fill="#f59e0b" font-size="8px" font-weight="bold" text-anchor="middle" x="1614.6" y="455.0">76</text><circle cx="1911.5" cy="546.0" fill="#475569" filter="url(#glow-warn)" r="14" stroke="#f59e0b" stroke-width="2" /><rect fill="#0f172a" height="10" opacity="0.82" rx="3" width="18" x="1902.5" y="541.0" /><text fill="#f59e0b" font-size="8px" font-weight="bold" text-anchor="middle" x="1911.5" y="549.0">46</text><circle cx="2027.3" cy="869.4" fill="#475569" filter="url(#glow-warn)" r="14" stroke="#f59e0b" stroke-width="2" /><rect fill="#0f172a" height="10" opacity="0.82" rx="3" width="18" x="2018.3" y="864.4" /><text fill="#f59e0b" font-size="8px" font-weight="bold" text-anchor="middle" x="2027.3" y="872.4">62</text><circle cx="2178.9" cy="1068.6" fill="#475569" filter="url(#glow-warn)" r="14" stroke="#f59e0b" stroke-width="2" /><rect fill="#0f172a" height="10" opacity="0.82" rx="3" width="18" x="2169.9" y="1063.6" /><text fill="#f59e0b" font-size="8px" font-weight="bold" text-anchor="middle" x="2178.9" y="1071.6">55</text><circle cx="2066.7" cy="1342.1" fill="#475569" filter="url(#glow-warn)" r="14" stroke="#f59e0b" stroke-width="2" /><rect fill="#0f172a" height="10" opacity="0.82" rx="3" width="18" x="2057.7" y="1337.1" /><text fill="#f59e0b" font-size="8px" font-weight="bold" text-anchor="middle" x="2066.7" y="1345.1">75</text><circle cx="1695.4" cy="1565.6" fill="#0ea5e9" r="20" stroke="#0ea5e9" stroke-width="0" /><rect fill="#0f172a" height="11" opacity="0.82" rx="3" width="26" x="1682.4" y="1560.1" /><text fill="#22c55e" font-size="9px" font-weight="bold" text-anchor="middle" x="1695.4" y="1568.9">198</text><circle cx="2066.3" cy="1578.0" fill="#0ea5e9" r="20" stroke="#0ea5e9" stroke-width="0" /><rect fill="#0f172a" height="11" opacity="0.82" rx="3" width="26" x="2053.3" y="1572.5" /><text fill="#22c55e" font-size="9px" font-weight="bold" text-anchor="middle" x="2066.3" y="1581.3">185</text><circle cx="2262.5" cy="1616.5" fill="#475569" r="14" stroke="#475569" stroke-width="0" /><rect fill="#0f172a" height="10" opacity="0.82" rx="3" width="23" x="2251.0" y="1611.5" /><text fill="#22c55e" font-size="8px" font-weight="bold" text-anchor="middle" x="2262.5" y="1619.5">141</text><circle cx="1990.1" cy="1776.6" fill="#475569" r="14" stroke="#475569" stroke-width="0" /><rect fill="#0f172a" height="10" opacity="0.82" rx="3" width="23" x="1978.6" y="1771.6" /><text fill="#22c55e" font-size="8px" font-weight="bold" text-anchor="middle" x="1990.1" y="1779.6">163</text><circle cx="1903.7" cy="1889.4" fill="#475569" r="14" stroke="#475569" stroke-width="0" /><rect fill="#0f172a" height="10" opacity="0.82" rx="3" width="23" x="1892.2" y="1884.4" /><text fill="#22c55e" font-size="8px" font-weight="bold" text-anchor="middle" x="1903.7" y="1892.4">145</text><circle cx="1517.2" cy="1711.8" fill="#0ea5e9" r="20" stroke="#0ea5e9" stroke-width="0" /><rect fill="#0f172a" height="11" opacity="0.82" rx="3" width="26" x="1504.2" y="1706.3" /><text fill="#22c55e" font-size="9px" font-weight="bold" text-anchor="middle" x="1517.2" y="1715.1">172</text><circle cx="1773.5" cy="1991.9" fill="#475569" r="14" stroke="#475569" stroke-width="0" /><rect fill="#0f172a" height="10" opacity="0.82" rx="3" width="18" x="1764.5" y="1986.9" /><text fill="#22c55e" font-size="8px" font-weight="bold" text-anchor="middle" x="1773.5" y="1994.9">92</text><circle cx="1597.8" cy="2062.1" fill="#475569" filter="url(#glow-warn)" r="14" stroke="#f59e0b" stroke-width="2" /><rect fill="#0f172a" height="10" opacity="0.82" rx="3" width="18" x="1588.8" y="2057.1" /><text fill="#f59e0b" font-size="8px" font-weight="bold" text-anchor="middle" x="1597.8" y="2065.1">71</text><circle cx="1409.2" cy="2075.8" fill="#475569" r="14" stroke="#475569" stroke-width="0" /><rect fill="#0f172a" height="10" opacity="0.82" rx="3" width="18" x="1400.2" y="2070.8" /><text fill="#22c55e" font-size="8px" font-weight="bold" text-anchor="middle" x="1409.2" y="2078.8">85</text><circle cx="1292.9" cy="1658.3" fill="#0ea5e9" r="20" stroke="#0ea5e9" stroke-width="0" /><rect fill="#0f172a" height="11" opacity="0.82" rx="3" width="26" x="1279.9" y="1652.8" /><text fill="#22c55e" font-size="9px" font-weight="bold" text-anchor="middle" x="1292.9" y="1661.6">143</text><circle cx="1140.3" cy="1989.5" fill="#0ea5e9" r="20" stroke="#0ea5e9" stroke-width="0" /><rect fill="#0f172a" height="11" opacity="0.82" rx="3" width="26" x="1127.3" y="1984.0" /><text fill="#22c55e" font-size="9px" font-weight="bold" text-anchor="middle" x="1140.3" y="1992.8">143</text><circle cx="1149.6" cy="2217.2" fill="#475569" r="14" stroke="#475569" stroke-width="0" /><rect fill="#0f172a" height="10" opacity="0.82" rx="3" width="23" x="1138.1" y="2212.2" /><text fill="#22c55e" font-size="8px" font-weight="bold" text-anchor="middle" x="1149.6" y="2220.2">118</text><circle cx="935.0" cy="2088.3" fill="#475569" r="14" stroke="#475569" stroke-width="0" /><rect fill="#0f172a" height="10" opacity="0.82" rx="3" width="23" x="923.5" y="2083.3" /><text fill="#22c55e" font-size="8px" font-weight="bold" text-anchor="middle" x="935.0" y="2091.3">103</text><circle cx="937.8" cy="1792.8" fill="#475569" filter="url(#glow-warn)" r="14" stroke="#f59e0b" stroke-width="2" /><rect fill="#0f172a" height="10" opacity="0.82" rx="3" width="18" x="928.8" y="1787.8" /><text fill="#f59e0b" font-size="8px" font-weight="bold" text-anchor="middle" x="937.8" y="1795.8">77</text><circle cx="1201.6" cy="1492.5" fill="#0ea5e9" r="20" stroke="#0ea5e9" stroke-width="0" /><rect fill="#0f172a" height="11" opacity="0.82" rx="3" width="26" x="1188.6" y="1487.0" /><text fill="#22c55e" font-size="9px" font-weight="bold" text-anchor="middle" x="1201.6" y="1495.8">138</text><circle cx="861.3" cy="1619.7" fill="#475569" r="14" stroke="#475569" stroke-width="0" /><rect fill="#0f172a" height="10" opacity="0.82" rx="3" width="23" x="849.8" y="1614.7" /><text fill="#22c55e" font-size="8px" font-weight="bold" text-anchor="middle" x="861.3" y="1622.7">131</text><circle cx="840.6" cy="1431.7" fill="#475569" filter="url(#glow-warn)" r="14" stroke="#f59e0b" stroke-width="2" /><rect fill="#0f172a" height="10" opacity="0.82" rx="3" width="18" x="831.6" y="1426.7" /><text fill="#f59e0b" font-size="8px" font-weight="bold" text-anchor="middle" x="840.6" y="1434.7">68</text><circle cx="1219.2" cy="1359.7" fill="#475569" r="14" stroke="#475569" stroke-width="0" /><rect fill="#0f172a" height="10" opacity="0.82" rx="3" width="23" x="1207.7" y="1354.7" /><text fill="#22c55e" font-size="8px" font-weight="bold" text-anchor="middle" x="1219.2" y="1362.7">112</text><circle cx="1295.8" cy="1257.1" fill="#475569" r="14" stroke="#475569" stroke-width="0" /><rect fill="#0f172a" height="10" opacity="0.82" rx="3" width="18" x="1286.8" y="1252.1" /><text fill="#22c55e" font-size="8px" font-weight="bold" text-anchor="middle" x="1295.8" y="1260.1">98</text><circle cx="1412.1" cy="1203.7" fill="#475569" filter="url(#glow-crit)" r="14" stroke="#ef4444" stroke-width="3" /><rect fill="#0f172a" height="10" opacity="0.82" rx="3" width="18" x="1403.1" y="1198.7" /><text fill="#ef4444" font-size="8px" font-weight="bold" text-anchor="middle" x="1412.1" y="1206.7">22</text></g><g id="labels"><rect fill="#0f172a" height="16" opacity="0.7" rx="5" width="76" x="1420.9" y="1489.9" /><text fill="#e2e8f0" font-size="11px" text-anchor="middle" x="1458.9" y="1502.9">Coordinator</text><rect fill="#0f172a" height="16" opacity="0.7" rx="5" width="82" x="1658.6" y="1234.7" /><text fill="#e2e8f0" font-size="11px" text-anchor="start" x="1662.6" y="1247.7">Hallway Plug</text><rect fill="#0f172a" height="16" opacity="0.7" rx="5" width="106" x="1831.0" y="912.2" /><text fill="#e2e8f0" font-size="11px" text-anchor="start" x="1835.0" y="925.2">SMLIGHT Repeater</text><rect fill="#0f172a" height="16" opacity="0.7" rx="5" width="76" x="1712.6" y="632.8" /><text fill="#e2e8f0" font-size="11px" text-anchor="start" x="1716.6" y="645.8">Garage Plug</text><rect fill="#0f172a" height="16" opacity="0.7" rx="5" width="88" x="1574.9" y="411.3" /><text fill="#e2e8f0" font-size="11px" text-anchor="middle" x="1618.9" y="424.3">Garden Sensor</text><rect fill="#0f172a" height="16" opacity="0.7" rx="5" width="64" x="1920.0" y="508.0" /><text fill="#e2e8f0" font-size="11px" text-anchor="start" x="1924.0" y="521.0">Shed Plug</text><rect fill="#0f172a" height="16" opacity="0.7" rx="5" width="82" x="2042.8" y="836.2" /><text fill="#e2e8f0" font-size="11px" text-anchor="start" x="2046.8" y="849.2">Attic Sensor</text><rect fill="#0f172a" height="16" opacity="0.7" rx="5" width="82" x="2199.5" y="1042.3" /><text fill="#e2e8f0" font-size="11px" text-anchor="start" x="2203.5" y="1055.3">Garden Light</text><rect fill="#0f172a" height="16" opacity="0.7" rx="5" width="76" x="2090.2" y="1323.8" /><text fill="#e2e8f0" font-size="11px" text-anchor="start" x="2094.2" y="1336.8">Stair Light</text><rect fill="#0f172a" height="16" opacity="0.7" rx="5" width="106" x="1722.4" y="1566.6" /><text fill="#e2e8f0" font-size="11px" text-anchor="start" x="1726.4" y="1579.6">Living Room Plug</text><rect fill="#0f172a" height="16" opacity="0.7" rx="5" width="52" x="2095.6" y="1571.6" /><text fill="#e2e8f0" font-size="11px" text-anchor="start" x="2099.6" y="1584.6">TV Plug</text><rect fill="#0f172a" height="16" opacity="0.7" rx="5" width="76" x="2286.0" y="1608.9" /><text fill="#e2e8f0" font-size="11px" text-anchor="start" x="2290.0" y="1621.9">Gaming Plug</text><rect fill="#0f172a" height="16" opacity="0.7" rx="5" width="88" x="2010.2" y="1777.9" /><text fill="#e2e8f0" font-size="11px" text-anchor="start" x="2014.2" y="1790.9">Living Motion</text><rect fill="#0f172a" height="16" opacity="0.7" rx="5" width="70" x="1919.8" y="1895.8" /><text fill="#e2e8f0" font-size="11px" text-anchor="start" x="1923.8" y="1908.8">Smart Bulb</text><rect fill="#0f172a" height="16" opacity="0.7" rx="5" width="82" x="1483.8" y="1731.9" /><text fill="#e2e8f0" font-size="11px" text-anchor="middle" x="1524.8" y="1744.9">Kitchen Plug</text><rect fill="#0f172a" height="16" opacity="0.7" rx="5" width="100" x="1783.8" y="2003.0" /><text fill="#e2e8f0" font-size="11px" text-anchor="start" x="1787.8" y="2016.0">Dishwasher Plug</text><rect fill="#0f172a" height="16" opacity="0.7" rx="5" width="88" x="1560.1" y="2076.3" /><text fill="#e2e8f0" font-size="11px" text-anchor="middle" x="1604.1" y="2089.3">Window Sensor</text><rect fill="#0f172a" height="16" opacity="0.7" rx="5" width="88" x="1362.9" y="2090.8" /><text fill="#e2e8f0" font-size="11px" text-anchor="middle" x="1406.9" y="2103.8">Fridge Sensor</text><rect fill="#0f172a" height="16" opacity="0.7" rx="5" width="82" x="1193.2" y="1671.5" /><text fill="#e2e8f0" font-size="11px" text-anchor="end" x="1271.2" y="1684.5">Bedroom Plug</text><rect fill="#0f172a" height="16" opacity="0.7" rx="5" width="82" x="1044.8" y="2005.7" /><text fill="#e2e8f0" font-size="11px" text-anchor="end" x="1122.8" y="2018.7">Bedside Plug</text><rect fill="#0f172a" height="16" opacity="0.7" rx="5" width="70" x="1073.0" y="2230.1" /><text fill="#e2e8f0" font-size="11px" text-anchor="end" x="1139.0" y="2243.1">Aqara Temp</text><rect fill="#0f172a" height="16" opacity="0.7" rx="5" width="70" x="851.1" y="2096.8" /><text fill="#e2e8f0" font-size="11px" text-anchor="end" x="917.1" y="2109.8">Nightlight</text><rect fill="#0f172a" height="16" opacity="0.7" rx="5" width="94" x="824.2" y="1794.9" /><text fill="#e2e8f0" font-size="11px" text-anchor="end" x="914.2" y="1807.9">Bedroom Sensor</text><rect fill="#0f172a" height="16" opacity="0.7" rx="5" width="76" x="1095.9" y="1483.9" /><text fill="#e2e8f0" font-size="11px" text-anchor="end" x="1167.9" y="1496.9">Office Plug</text><rect fill="#0f172a" height="16" opacity="0.7" rx="5" width="64" x="774.2" y="1614.0" /><text fill="#e2e8f0" font-size="11px" text-anchor="end" x="834.2" y="1627.0">Desk Plug</text><rect fill="#0f172a" height="16" opacity="0.7" rx="5" width="88" x="728.6" y="1417.5" /><text fill="#e2e8f0" font-size="11px" text-anchor="end" x="812.6" y="1430.5">Sonoff Switch</text><rect fill="#0f172a" height="16" opacity="0.7" rx="5" width="100" x="1097.3" y="1336.0" /><text fill="#e2e8f0" font-size="11px" text-anchor="end" x="1193.3" y="1349.0">Bathroom Sensor</text><rect fill="#0f172a" height="16" opacity="0.7" rx="5" width="112" x="1170.2" y="1222.4" /><text fill="#e2e8f0" font-size="11px" text-anchor="end" x="1278.2" y="1235.4">Front Door Sensor</text><rect fill="#0f172a" height="16" opacity="0.7" rx="5" width="76" x="1369.1" y="1163.2" /><text fill="#e2e8f0" font-size="11px" text-anchor="middle" x="1407.1" y="1176.2">Porch Light</text></g><g id="lqi-labels"><rect fill="#0f172a" height="13" opacity="0.85" rx="4" width="31" x="1514.4" y="1481.9" /><text fill="#22c55e" font-size="11px" opacity="0.95" text-anchor="middle" x="1529.9" y="1491.9">198</text><rect fill="#0f172a" height="13" opacity="0.85" rx="4" width="31" x="1460.9" y="1525.8" /><text fill="#22c55e" font-size="11px" opacity="0.95" text-anchor="middle" x="1476.4" y="1535.8">172</text><rect fill="#0f172a" height="13" opacity="0.85" rx="4" width="31" x="1497.5" y="1393.9" /><text fill="#22c55e" font-size="11px" opacity="0.95" text-anchor="middle" x="1513.0" y="1403.9">155</text><rect fill="#0f172a" height="13" opacity="0.85" rx="4" width="31" x="1393.6" y="1509.7" /><text fill="#22c55e" font-size="11px" opacity="0.95" text-anchor="middle" x="1409.1" y="1519.7">143</text><rect fill="#0f172a" height="13" opacity="0.85" rx="4" width="31" x="1366.2" y="1460.0" /><text fill="#22c55e" font-size="11px" opacity="0.95" text-anchor="middle" x="1381.7" y="1470.0">138</text><rect fill="#0f172a" height="13" opacity="0.85" rx="4" width="31" x="1371.5" y="1420.2" /><text fill="#22c55e" font-size="11px" opacity="0.95" text-anchor="middle" x="1387.0" y="1430.2">112</text><rect fill="#0f172a" height="13" opacity="0.85" rx="4" width="24" x="1398.0" y="1389.4" /><text fill="#22c55e" font-size="11px" opacity="0.95" text-anchor="middle" x="1410.0" y="1399.4">98</text><rect fill="#0f172a" height="13" opacity="0.85" rx="4" width="24" x="1432.9" y="1373.4" /><text fill="#ef4444" font-size="11px" opacity="0.95" text-anchor="middle" x="1444.9" y="1383.4">22</text><rect fill="#0f172a" height="13" opacity="0.85" rx="4" width="31" x="1791.2" y="1560.4" /><text fill="#22c55e" font-size="11px" opacity="0.95" text-anchor="middle" x="1806.7" y="1570.4">185</text><rect fill="#0f172a" height="13" opacity="0.85" rx="4" width="31" x="1768.3" y="1619.9" /><text fill="#22c55e" font-size="11px" opacity="0.95" text-anchor="middle" x="1783.8" y="1629.9">163</text><rect fill="#0f172a" height="13" opacity="0.85" rx="4" width="31" x="1742.4" y="1653.7" /><text fill="#22c55e" font-size="11px" opacity="0.95" text-anchor="middle" x="1757.9" y="1663.7">145</text><rect fill="#0f172a" height="13" opacity="0.85" rx="4" width="24" x="1582.1" y="1786.8" /><text fill="#22c55e" font-size="11px" opacity="0.95" text-anchor="middle" x="1594.1" y="1796.8">92</text><rect fill="#0f172a" height="13" opacity="0.85" rx="4" width="24" x="1529.4" y="1807.9" /><text fill="#f59e0b" font-size="11px" opacity="0.95" text-anchor="middle" x="1541.4" y="1817.9">71</text><rect fill="#0f172a" height="13" opacity="0.85" rx="4" width="24" x="1472.8" y="1812.0" /><text fill="#22c55e" font-size="11px" opacity="0.95" text-anchor="middle" x="1484.8" y="1822.0">85</text><rect fill="#0f172a" height="13" opacity="0.85" rx="4" width="24" x="1679.9" y="1167.4" /><text fill="#f59e0b" font-size="11px" opacity="0.95" text-anchor="middle" x="1691.9" y="1177.4">76</text><rect fill="#0f172a" height="13" opacity="0.85" rx="4" width="24" x="1755.3" y="1284.1" /><text fill="#f59e0b" font-size="11px" opacity="0.95" text-anchor="middle" x="1767.3" y="1294.1">75</text><rect fill="#0f172a" height="13" opacity="0.85" rx="4" width="31" x="1231.6" y="1748.7" /><text fill="#22c55e" font-size="11px" opacity="0.95" text-anchor="middle" x="1247.1" y="1758.7">162</text><rect fill="#0f172a" height="13" opacity="0.85" rx="4" width="24" x="1174.4" y="1689.7" /><text fill="#f59e0b" font-size="11px" opacity="0.95" text-anchor="middle" x="1186.4" y="1699.7">77</text><rect fill="#0f172a" height="13" opacity="0.85" rx="4" width="31" x="1084.0" y="1521.7" /><text fill="#22c55e" font-size="11px" opacity="0.95" text-anchor="middle" x="1099.5" y="1531.7">131</text><rect fill="#0f172a" height="13" opacity="0.85" rx="4" width="24" x="1081.3" y="1465.3" /><text fill="#f59e0b" font-size="11px" opacity="0.95" text-anchor="middle" x="1093.3" y="1475.3">68</text><rect fill="#0f172a" height="13" opacity="0.85" rx="4" width="31" x="2109.7" y="1580.6" /><text fill="#22c55e" font-size="11px" opacity="0.95" text-anchor="middle" x="2125.2" y="1590.6">141</text><rect fill="#0f172a" height="13" opacity="0.85" rx="4" width="31" x="1767.2" y="861.5" /><text fill="#22c55e" font-size="11px" opacity="0.95" text-anchor="middle" x="1782.7" y="871.5">105</text><rect fill="#0f172a" height="13" opacity="0.85" rx="4" width="24" x="1867.0" y="918.9" /><text fill="#f59e0b" font-size="11px" opacity="0.95" text-anchor="middle" x="1879.0" y="928.9">62</text><rect fill="#0f172a" height="13" opacity="0.85" rx="4" width="24" x="1912.4" y="978.7" /><text fill="#f59e0b" font-size="11px" opacity="0.95" text-anchor="middle" x="1924.4" y="988.7">55</text><rect fill="#0f172a" height="13" opacity="0.85" rx="4" width="31" x="1127.6" y="2048.8" /><text fill="#22c55e" font-size="11px" opacity="0.95" text-anchor="middle" x="1143.1" y="2058.8">118</text><rect fill="#0f172a" height="13" opacity="0.85" rx="4" width="31" x="1063.2" y="2010.2" /><text fill="#22c55e" font-size="11px" opacity="0.95" text-anchor="middle" x="1078.7" y="2020.2">103</text><rect fill="#0f172a" height="13" opacity="0.85" rx="4" width="24" x="1666.8" y="601.4" /><text fill="#22c55e" font-size="11px" opacity="0.95" text-anchor="middle" x="1678.8" y="611.4">84</text><rect fill="#0f172a" height="13" opacity="0.85" rx="4" width="24" x="1755.9" y="629.6" /><text fill="#f59e0b" font-size="11px" opacity="0.95" text-anchor="middle" x="1767.9" y="639.6">46</text></g><g id="legend"><rect fill="#1e293b" height="290" rx="8" stroke="#334155" stroke-width="1" width="280" x="20" y="20" /><text fill="#e2e8f0" font-size="12px" font-weight="bold" text-anchor="middle" x="160" y="38">Legend</text><circle cx="36" cy="59" fill="#f59e0b" r="9" /><text fill="#e2e8f0" font-size="11px" x="50" y="62">Coordinator</text><circle cx="36" cy="83" fill="#0ea5e9" r="7" /><text fill="#e2e8f0" font-size="11px" x="50" y="86">Router</text><circle cx="36" cy="107" fill="#475569" r="5" /><text fill="#e2e8f0" font-size="11px" x="50" y="110">End device</text><circle cx="36" cy="137" fill="#0ea5e9" filter="url(#glow-warn)" r="7" stroke="#f59e0b" stroke-width="2" /><text fill="#f59e0b" font-size="11px" x="50" y="140">Weak node  (LQI &lt; 80)</text><circle cx="36" cy="161" fill="#0ea5e9" filter="url(#glow-crit)" r="7" stroke="#ef4444" stroke-width="2" /><text fill="#ef4444" font-size="11px" x="50" y="164">Critical node  (LQI &lt; 30)</text><circle cx="36" cy="191" fill="#0ea5e9" r="7" /><rect fill="#0f172a" height="10" opacity="0.82" rx="3" width="14" x="29.0" y="186" /><text fill="#22c55e" font-size="8px" font-weight="bold" text-anchor="middle" x="36" y="194">42</text><text fill="#64748b" font-size="11px" x="50" y="194">path min LQI (worst hop)</text><line stroke="#22c55e" stroke-width="2" x1="28" x2="46" y1="214" y2="214" /><text fill="#e2e8f0" font-size="11px" x="52" y="218">LQI ≥ 80  (good)</text><line stroke="#f59e0b" stroke-width="2" x1="28" x2="46" y1="234" y2="234" /><text fill="#e2e8f0" font-size="11px" x="52" y="238">LQI 30–80  (weak)</text><line stroke="#ef4444" stroke-width="2" x1="28" x2="46" y1="254" y2="254" /><text fill="#e2e8f0" font-size="11px" x="52" y="258">LQI &lt; 30  (critical)</text></g></svg>