<?xml version="1.0" encoding="utf-8" ?>
<svg baseProfile="full" font-family="system-ui, -apple-system, sans-serif" height="2917" version="1.1" width="2917" xmlns="http://www.w3.org/2000/svg" xmlns:ev="http://www.w3.org/2001/xml-events" xmlns:xlink="http://www.w3.org/1999/xlink"><defs><filter height="220%" id="glow-warn" width="220%" x="-60%" y="-60%"><feGaussianBlur in="SourceAlpha" result="blur" stdDeviation="6" /><feFlood flood-color="#f59e0b" flood-opacity="0.85" result="flood" /><feComposite in="flood" in2="blur" operator="in" result="glow" /><feMerge><feMergeNode in="glow" /><feMergeNode in="SourceGraphic" /></feMerge></filter><filter height="220%" id="glow-crit" width="220%" x="-60%" y="-60%"><feGaussianBlur in="SourceAlpha" result="blur" stdDeviation="8" /><feFlood flood-color="#ef4444" flood-opacity="0.85" result="flood" /><feComposite in="flood" in2="blur" operator="in" result="glow" /><feMerge><feMergeNode in="glow" /><feMergeNode in="SourceGraphic" /></feMerge></filter></defs><rect fill="#0f172a" height="2917" width="2917" x="0" y="0" /><g id="ring-fills"><circle cx="1458.9239851783025" cy="1458.9239851783025" fill="#201018" r="1118.9239851783025" stroke="none" /><circle cx="1458.9239851783025" cy="1458.9239851783025" fill="#1a171b" r="918.9239851783025" stroke="none" /><circle cx="1458.9239851783025" cy="1458.9239851783025" fill="#131d1d" r="718.9239851783025" stroke="none" /><circle cx="1458.9239851783025" cy="1458.9239851783025" fill="#0d2420" r="518.9239851783025" stroke="none" /><circle cx="1458.9239851783025" cy="1458.9239851783025" fill="#0f172a" r="38" stroke="none" /></g><g id="rings"><circle cx="1458.9239851783025" cy="1458.9239851783025" fill="none" r="518.9239851783025" stroke="#1e4035" stroke-dasharray="5,4" stroke-width="1" /><text fill="#facc15" font-size="12px" font-weight="bold" letter-spacing="0.5" text-anchor="middle" x="1458.9239851783025" y="954.0">Hop 1</text><circle cx="1458.9239851783025" cy="1458.9239851783025" fill="none" r="718.9239851783025" stroke="#283533" stroke-dasharray="5,4" stroke-width="1" /><text fill="#4ade80" font-size="12px" font-weight="bold" letter-spacing="0.5" text-anchor="middle" x="1458.9239851783025" y="754.0">Hop 2</text><circle cx="1458.9239851783025" cy="1458.9239851783025" fill="none" r="918.9239851783025" stroke="#332930" stroke-dasharray="5,4" stroke-width="1" /><text fill="#60a5fa" font-size="12px" font-weight="bold" letter-spacing="0.5" text-anchor="middle" x="1458.9239851783025" y="554.0">Hop 3</text><circle cx="1458.9239851783025" cy="1458.9239851783025" fill="none" r="1118.9239851783025" stroke="#3d1e2e" stroke-dasharray="5,4" stroke-width="1" /><text fill="#f472b6" font-size="12px" font-weight="bold" letter-spacing="0.5" text-anchor="middle" x="1458.9239851783025" y="354.0">Hop 4</text></g><g id="edges" opacity="0.55"><line stroke="#22c55e" stroke-width="2.97" x1="1706.6" x2="1458.9" y1="1536.3" y2="1458.9" /><line stroke="#22c55e" stroke-width="2.69" x1="1311.1" x2="1458.9" y1="1672.2" y2="1458.9" /><line stroke="#22c55e" stroke-width="2.5" x1="1622.4" x2="1458.9" y1="1257.4" y2="1458.9" /><line stroke="#22c55e" stroke-width="2.37" x1="1522.0" x2="1458.9" y1="1710.6" y2="1458.9" /><line stroke="#22c55e" stroke-width="2.32" x1="1210.4" x2="1458.9" y1="1533.6" y2="1458.9" /><line stroke="#22c55e" stroke-width="2.03" x1="1208.4" x2="1458.9" y1="1391.6" y2="1458.9" /><line stroke="#22c55e" stroke-width="1.88" x1="1281.3" x2="1458.9" y1="1269.8" y2="1458.9" /><line stroke="#ef4444" stroke-width="1.04" x1="1407.5" x2="1458.9" y1="1204.6" y2="1458.9" /><line stroke="#22c55e" stroke-width="2.83" x1="2077.1" x2="1706.6" y1="1488.3" y2="1536.3" /><line stroke="#22c55e" stroke-width="2.59" x1="2021.3" x2="1706.6" y1="1717.4" y2="1536.3" /><line stroke="#22c55e" stroke-width="2.39" x1="1937.7" x2="1706.6" y1="1851.1" y2="1536.3" /><line stroke="#22c55e" stroke-width="1.81" x1="1231.6" x2="1311.1" y1="2034.6" y2="1672.2" /><line stroke="#f59e0b" stroke-width="1.58" x1="1106.4" x2="1311.1" y1="1967.6" y2="1672.2" /><line stroke="#22c55e" stroke-width="1.73" x1="999.7" x2="1311.1" y1="1873.9" y2="1672.2" /><line stroke="#f59e0b" stroke-width="1.63" x1="1761.6" x2="1622.4" y1="919.1" y2="1257.4" /><line stroke="#f59e0b" stroke-width="1.62" x1="2034.1" x2="1622.4" y1="1230.3" y2="1257.4" /><line stroke="#22c55e" stroke-width="2.58" x1="1709.1" x2="1522.0" y1="2025.1" y2="1710.6" /><line stroke="#f59e0b" stroke-width="1.65" x1="1400.2" x2="1522.0" y1="2075.1" y2="1710.6" /><line stroke="#22c55e" stroke-width="2.24" x1="902.6" x2="1210.4" y1="1730.2" y2="1533.6" /><line stroke="#f59e0b" stroke-width="1.55" x1="843.9" x2="1210.4" y1="1528.7" y2="1533.6" /><line stroke="#22c55e" stroke-width="2.35" x1="2276.9" x2="2077.1" y1="1497.8" y2="1488.3" /><line stroke="#22c55e" stroke-width="1.95" x1="1665.9" x2="1761.6" y1="666.6" y2="919.1" /><line stroke="#f59e0b" stroke-width="1.48" x1="1947.2" x2="1761.6" y1="801.5" y2="919.1" /><line stroke="#f59e0b" stroke-width="1.4" x1="2097.5" x2="1761.6" y1="946.2" y2="919.1" /><line stroke="#22c55e" stroke-width="2.1" x1="1912.1" x2="1709.1" y1="2141.0" y2="2025.1" /><line stroke="#22c55e" stroke-width="1.93" x1="1658.1" x2="1709.1" y1="2253.3" y2="2025.1" /><line stroke="#22c55e" stroke-width="1.72" x1="1588.7" x2="1665.9" y1="448.3" y2="666.6" /><line stroke="#f59e0b" stroke-width="1.31" x1="1840.0" x2="1665.9" y1="513.9" y2="666.6" /></g><g id="nodes"><circle cx="1458.9" cy="1458.9" fill="#f59e0b" r="28" stroke="#f59e0b" stroke-width="0" /><circle cx="1622.4" cy="1257.4" fill="#0ea5e9" r="20" stroke="#0ea5e9" stroke-width="0" /><rect fill="#0f172a" height="11" opacity="0.82" rx="3" width="26" x="1609.4" y="1251.9" /><text fill="#22c55e" font-size="9px" font-weight="bold" text-anchor="middle" x="1622.4" y="1260.7">155</text><circle cx="1761.6" cy="919.1" fill="#0ea5e9" filter="url(#glow-warn)" r="20" stroke="#f59e0b" stroke-width="2" /><rect fill="#0f172a" height="11" opacity="0.82" rx="3" width="20" x="1751.6" y="913.6" /><text fill="#f59e0b" font-size="9px" font-weight="bold" text-anchor="middle" x="1761.6" y="922.4">76</text><circle cx="1665.9" cy="666.6" fill="#0ea5e9" r="20" stroke="#0ea5e9" stroke-width="0" /><rect fill="#0f172a" height="11" opacity="0.82" rx="3" width="20" x="1655.9" y="661.1" /><text fill="#f59e0b" font-size="9px" font-weight="bold" text-anchor="middle" x="1665.9" y="669.9">76</text><circle cx="1588.7" cy="448.3" fill="#475569" r="14" stroke="#475569" stroke-width="0" /><rect fill="#0f172a" height="10" opacity="0.82" rx="3" width="18" x="1579.7" y="443.3" /><text fill="#f59e0b" font-size="8px" font-weight="bold" text-anchor="middle" x="1588.7" y="451.3">76</text><circle cx="1840.0" cy="513.9" fill="#475569" filter="url(#glow-warn)" r="14" stroke="#f59e0b" stroke-width="2" /><rect fill="#0f172a" height="10" opacity="0.82" rx="3" width="18" x="1831.0" y="508.9" /><text fill="#f59e0b" font-size="8px" font-weight="bold" text-anchor="middle" x="1840.0" y="516.9">46</text><circle cx="1947.2" cy="801.5" fill="#475569" filter="url(#glow-warn)" r="14" stroke="#f59e0b" stroke-width="2" /><rect fill="#0f172a" height="10" opacity="0.82" rx="3" width="18" x="1938.2" y="796.5" /><text fill="#f59e0b" font-size="8px" font-weight="bold" text-anchor="middle" x="1947.2" y="804.5">62</text><circle cx="2097.5" cy="946.2" fill="#475569" filter="url(#glow-warn)" r="14" stroke="#f59e0b" stroke-width="2" /><rect fill="#0f172a" height="10" opacity="0.82" rx="3" width="18" x="2088.5" y="941.2" /><text fill="#f59e0b" font-size="8px" font-weight="bold" text-anchor="middle" x="2097.5" y="949.2">55</text><circle cx="2034.1" cy="1230.3" fill="#475569" filter="url(#glow-warn)" r="14" stroke="#f59e0b" stroke-width="2" /><rect fill="#0f172a" height="10" opacity="0.82" rx="3" width="18" x="2025.1" y="1225.3" /><text fill="#f59e0b" font-size="8px" font-weight="bold" text-anchor="middle" x="2034.1" y="1233.3">75</text><circle cx="1706.6" cy="1536.3" fill="#0ea5e9" r="20" stroke="#0ea5e9" stroke-width="0" /><rect fill="#0f172a" height="11" opacity="0.82" rx="3" width="26" x="1693.6" y="1530.8" /><text fill="#22c55e" font-size="9px" font-weight="bold" text-anchor="middle" x="1706.6" y="1539.6">198</text><circle cx="2077.1" cy="1488.3" fill="#0ea5e9" r="20" stroke="#0ea5e9" stroke-width="0" /><rect fill="#0f172a" height="11" opacity="0.82" rx="3" width="26" x="2064.1" y="1482.8" /><text fill="#22c55e" font-size="9px" font-weight="bold" text-anchor="middle" x="2077.1" y="1491.6">185</text><circle cx="2276.9" cy="1497.8" fill="#475569" r="14" stroke="#475569" stroke-width="0" /><rect fill="#0f172a" height="10" opacity="0.82" rx="3" width="23" x="2265.4" y="1492.8" /><text fill="#22c55e" font-size="8px" font-weight="bold" text-anchor="middle" x="2276.9" y="1500.8">141</text><circle cx="2021.3" cy="1717.4" fill="#475569" r="14" stroke="#475569" stroke-width="0" /><rect fill="#0f172a" height="10" opacity="0.82" rx="3" width="23" x="2009.8" y="1712.4" /><text fill="#22c55e" font-size="8px" font-weight="bold" text-anchor="middle" x="2021.3" y="1720.4">163</text><circle cx="1937.7" cy="1851.1" fill="#475569" r="14" stroke="#475569" stroke-width="0" /><rect fill="#0f172a" height="10" opacity="0.82" rx="3" width="23" x="1926.2" y="1846.1" /><text fill="#22c55e" font-size="8px" font-weight="bold" text-anchor="middle" x="1937.7" y="1854.1">145</text><circle cx="1522.0" cy="1710.6" fill="#0ea5e9" r="20" stroke="#0ea5e9" stroke-width="0" /><rect fill="#0f172a" height="11" opacity="0.82" rx="3" width="26" x="1509.0" y="1705.1" /><text fill="#22c55e" font-size="9px" font-weight="bold" text-anchor="middle" x="1522.0" y="1713.9">143</text><circle cx="1709.1" cy="2025.1" fill="#0ea5e9" r="20" stroke="#0ea5e9" stroke-width="0" /><rect fill="#0f172a" height="11" opacity="0.82" rx="3" width="26" x="1696.1" y="2019.6" /><text fill="#22c55e" font-size="9px" font-weight="bold" text-anchor="middle" x="1709.1" y="2028.4">143</text><circle cx="1912.1" cy="2141.0" fill="#475569" r="14" stroke="#475569" stroke-width="0" /><rect fill="#0f172a" height="10" opacity="0.82" rx="3" width="23" x="1900.6" y="2136.0" /><text fill="#22c55e" font-size="8px" font-weight="bold" text-anchor="middle" x="1912.1" y="2144.0">118</text><circle cx="1658.1" cy="2253.3" fill="#475569" r="14" stroke="#475569" stroke-width="0" /><rect fill="#0f172a" height="10" opacity="0.82" rx="3" width="23" x="1646.6" y="2248.3" /><text fill="#22c55e" font-size="8px" font-weight="bold" text-anchor="middle" x="1658.1" y="2256.3">103</text><circle cx="1400.2" cy="2075.1" fill="#475569" filter="url(#glow-warn)" r="14" stroke="#f59e0b" stroke-width="2" /><rect fill="#0f172a" height="10" opacity="0.82" rx="3" width="18" x="1391.2" y="2070.1" /><text fill="#f59e0b" font-size="8px" font-weight="bold" text-anchor="middle" x="1400.2" y="2078.1">77</text><circle cx="1311.1" cy="1672.2" fill="#0ea5e9" r="20" stroke="#0ea5e9" stroke-width="0" /><rect fill="#0f172a" height="11" opacity="0.82" rx="3" width="26" x="1298.1" y="1666.7" /><text fill="#22c55e" font-size="9px" font-weight="bold" text-anchor="middle" x="1311.1" y="1675.5">172</text><circle cx="1231.6" cy="2034.6" fill="#475569" r="14" stroke="#475569" stroke-width="0" /><rect fill="#0f172a" height="10" opacity="0.82" rx="3" width="18" x="1222.6" y="2029.6" /><text fill="#22c55e" font-size="8px" font-weight="bold" text-anchor="middle" x="1231.6" y="2037.6">92</text><circle cx="1106.4" cy="1967.6" fill="#475569" filter="url(#glow-warn)" r="14" stroke="#f59e0b" stroke-width="2" /><rect fill="#0f172a" height="10" opacity="0.82" rx="3" width="18" x="1097.4" y="1962.6" /><text fill="#f59e0b" font-size="8px" font-weight="bold" text-anchor="middle" x="1106.4" y="1970.6">71</text><circle cx="999.7" cy="1873.9" fill="#475569" r="14" stroke="#475569" stroke-width="0" /><rect fill="#0f172a" height="10" opacity="0.82" rx="3" width="18" x="990.7" y="1868.9" /><text fill="#22c55e" font-size="8px" font-weight="bold" text-anchor="middle" x="999.7" y="1876.9">85</text><circle cx="1210.4" cy="1533.6" fill="#0ea5e9" r="20" stroke="#0ea5e9" stroke-width="0" /><rect fill="#0f172a" height="11" opacity="0.82" rx="3" width="26" x="1197.4" y="1528.1" /><text fill="#22c55e" font-size="9px" font-weight="bold" text-anchor="middle" x="1210.4" y="1536.9">138</text><circle cx="902.6" cy="1730.2" fill="#475569" r="14" stroke="#475569" stroke-width="0" /><rect fill="#0f172a" height="10" opacity="0.82" rx="3" width="23" x="891.1" y="1725.2" /><text fill="#22c55e" font-size="8px" font-weight="bold" text-anchor="middle" x="902.6" y="1733.2">131</text><circle cx="843.9" cy="1528.7" fill="#475569" filter="url(#glow-warn)" r="14" stroke="#f59e0b" stroke-width="2" /><rect fill="#0f172a" height="10" opacity="0.82" rx="3" width="18" x="834.9" y="1523.7" /><text fill="#f59e0b" font-size="8px" font-weight="bold" text-anchor="middle" x="843.9" y="1531.7">68</text><circle cx="1208.4" cy="1391.6" fill="#475569" r="14" stroke="#475569" stroke-width="0" /><rect fill="#0f172a" height="10" opacity="0.82" rx="3" width="23" x="1196.9" y="1386.6" /><text fill="#22c55e" font-size="8px" font-weight="bold" text-anchor="middle" x="1208.4" y="1394.6">112</text><circle cx="1281.3" cy="1269.8" fill="#475569" r="14" stroke="#475569" stroke-width="0" /><rect fill="#0f172a" height="10" opacity="0.82" rx="3" width="18" x="1272.3" y="1264.8" /><text fill="#22c55e" font-size="8px" font-weight="bold" text-anchor="middle" x="1281.3" y="1272.8">98</text><circle cx="1407.5" cy="1204.6" fill="#475569" filter="url(#glow-crit)" r="14" stroke="#ef4444" stroke-width="3" /><rect fill="#0f172a" height="10" opacity="0.82" rx="3" width="18" x="1398.5" y="1199.6" /><text fill="#ef4444" font-size="8px" font-weight="bold" text-anchor="middle" x="1407.5" y="1207.6">22</text></g><g id="labels"><rect fill="#0f172a" height="16" opacity="0.7" rx="5" width="76" x="1420.9" y="1489.9" /><text fill="#e2e8f0" font-size="11px" text-anchor="middle" x="1458.9" y="1502.9">Coordinator</text><rect fill="#0f172a" height="16" opacity="0.7" rx="5" width="82" x="1639.8" y="1218.0" /><text fill="#e2e8f0" font-size="11px" text-anchor="start" x="1643.8" y="1231.0">Hallway Plug</text><rect fill="#0f172a" height="16" opacity="0.7" rx="5" width="106" x="1774.3" y="876.4" /><text fill="#e2e8f0" font-size="11px" text-anchor="start" x="1778.3" y="889.4">SMLIGHT Repeater</text><rect fill="#0f172a" height="16" opacity="0.7" rx="5" width="76" x="1670.5" y="620.7" /><text fill="#e2e8f0" font-size="11px" text-anchor="start" x="1674.5" y="633.7">Garage Plug</text><rect fill="#0f172a" height="16" opacity="0.7" rx="5" width="88" x="1548.3" y="407.5" /><text fill="#e2e8f0" font-size="11px" text-anchor="middle" x="1592.3" y="420.5">Garden Sensor</text><rect fill="#0f172a" height="16" opacity="0.7" rx="5" width="64" x="1846.4" y="475.0" /><text fill="#e2e8f0" font-size="11px" text-anchor="start" x="1850.4" y="488.0">Shed Plug</text><rect fill="#0f172a" height="16" opacity="0.7" rx="5" width="82" x="1959.9" y="766.0" /><text fill="#e2e8f0" font-size="11px" text-anchor="start" x="1963.9" y="779.0">Attic Sensor</text><rect fill="#0f172a" height="16" opacity="0.7" rx="5" width="82" x="2115.3" y="915.7" /><text fill="#e2e8f0" font-size="11px" text-anchor="start" x="2119.3" y="928.7">Garden Light</text><rect fill="#0f172a" height="16" opacity="0.7" rx="5" width="76" x="2056.1" y="1206.9" /><text fill="#e2e8f0" font-size="11px" text-anchor="start" x="2060.1" y="1219.9">Stair Light</text><rect fill="#0f172a" height="16" opacity="0.7" rx="5" width="106" x="1735.0" y="1533.5" /><text fill="#e2e8f0" font-size="11px" text-anchor="start" x="1739.0" y="1546.5">Living Room Plug</text><rect fill="#0f172a" height="16" opacity="0.7" rx="5" width="52" x="2107.1" y="1476.9" /><text fill="#e2e8f0" font-size="11px" text-anchor="start" x="2111.1" y="1489.9">TV Plug</text><rect fill="#0f172a" height="16" opacity="0.7" rx="5" width="76" x="2300.9" y="1486.1" /><text fill="#e2e8f0" font-size="11px" text-anchor="start" x="2304.9" y="1499.1">Gaming Plug</text><rect fill="#0f172a" height="16" opacity="0.7" rx="5" width="88" x="2042.7" y="1716.1" /><text fill="#e2e8f0" font-size="11px" text-anchor="start" x="2046.7" y="1729.1">Living Motion</text><rect fill="#0f172a" height="16" opacity="0.7" rx="5" width="70" x="1955.4" y="1855.9" /><text fill="#e2e8f0" font-size="11px" text-anchor="start" x="1959.4" y="1868.9">Smart Bulb</text><rect fill="#0f172a" height="16" opacity="0.7" rx="5" width="82" x="1489.3" y="1730.6" /><text fill="#e2e8f0" font-size="11px" text-anchor="middle" x="1530.3" y="1743.6">Bedroom Plug</text><rect fill="#0f172a" height="16" opacity="0.7" rx="5" width="82" x="1718.8" y="2043.2" /><text fill="#e2e8f0" font-size="11px" text-anchor="start" x="1722.8" y="2056.2">Bedside Plug</text><rect fill="#0f172a" height="16" opacity="0.7" rx="5" width="70" x="1923.6" y="2151.4" /><text fill="#e2e8f0" font-size="11px" text-anchor="start" x="1927.6" y="2164.4">Aqara Temp</text><rect fill="#0f172a" height="16" opacity="0.7" rx="5" width="70" x="1629.9" y="2267.4" /><text fill="#e2e8f0" font-size="11px" text-anchor="middle" x="1664.9" y="2280.4">Nightlight</text><rect fill="#0f172a" height="16" opacity="0.7" rx="5" width="94" x="1350.6" y="2089.9" /><text fill="#e2e8f0" font-size="11px" text-anchor="middle" x="1397.6" y="2102.9">Bedroom Sensor</text><rect fill="#0f172a" height="16" opacity="0.7" rx="5" width="82" x="1213.8" y="1687.1" /><text fill="#e2e8f0" font-size="11px" text-anchor="end" x="1291.8" y="1700.1">Kitchen Plug</text><rect fill="#0f172a" height="16" opacity="0.7" rx="5" width="100" x="1125.3" y="2047.6" /><text fill="#e2e8f0" font-size="11px" text-anchor="end" x="1221.3" y="2060.6">Dishwasher Plug</text><rect fill="#0f172a" height="16" opacity="0.7" rx="5" width="88" x="1006.4" y="1977.6" /><text fill="#e2e8f0" font-size="11px" text-anchor="end" x="1090.4" y="1990.6">Window Sensor</text><rect fill="#0f172a" height="16" opacity="0.7" rx="5" width="88" x="894.9" y="1879.7" /><text fill="#e2e8f0" font-size="11px" text-anchor="end" x="978.9" y="1892.7">Fridge Sensor</text><rect fill="#0f172a" height="16" opacity="0.7" rx="5" width="76" x="1105.9" y="1530.4" /><text fill="#e2e8f0" font-size="11px" text-anchor="end" x="1177.9" y="1543.4">Office Plug</text><rect fill="#0f172a" height="16" opacity="0.7" rx="5" width="64" x="817.4" y="1729.5" /><text fill="#e2e8f0" font-size="11px" text-anchor="end" x="877.4" y="1742.5">Desk Plug</text><rect fill="#0f172a" height="16" opacity="0.7" rx="5" width="88" x="732.1" y="1518.9" /><text fill="#e2e8f0" font-size="11px" text-anchor="end" x="816.1" y="1531.9">Sonoff Switch</text><rect fill="#0f172a" height="16" opacity="0.7" rx="5" width="100" x="1085.3" y="1371.3" /><text fill="#e2e8f0" font-size="11px" text-anchor="end" x="1181.3" y="1384.3">Bathroom Sensor</text><rect fill="#0f172a" height="16" opacity="0.7" rx="5" width="112" x="1154.2" y="1236.4" /><text fill="#e2e8f0" font-size="11px" text-anchor="end" x="1262.2" y="1249.4">Front Door Sensor</text><rect fill="#0f172a" height="16" opacity="0.7" rx="5" width="76" x="1363.9" y="1164.2" /><text fill="#e2e8f0" font-size="11px" text-anchor="middle" x="1401.9" y="1177.2">Porch Light</text></g><g id="lqi-labels"><rect fill="#0f172a" height="13" opacity="0.85" rx="4" width="31" x="1517.7" y="1473.2" /><text fill="#22c55e" font-size="11px" opacity="0.95" text-anchor="middle" x="1533.2" y="1483.2">198</text><rect fill="#0f172a" height="13" opacity="0.85" rx="4" width="31" x="1399.1" y="1513.9" /><text fill="#22c55e" font-size="11px" opacity="0.95" text-anchor="middle" x="1414.6" y="1523.9">172</text><rect fill="#0f172a" height="13" opacity="0.85" rx="4" width="31" x="1492.5" y="1389.5" /><text fill="#22c55e" font-size="11px" opacity="0.95" text-anchor="middle" x="1508.0" y="1399.5">155</text><rect fill="#0f172a" height="13" opacity="0.85" rx="4" width="31" x="1462.4" y="1525.4" /><text fill="#22c55e" font-size="11px" opacity="0.95" text-anchor="middle" x="1477.9" y="1535.4">143</text><rect fill="#0f172a" height="13" opacity="0.85" rx="4" width="31" x="1368.9" y="1472.3" /><text fill="#22c55e" font-size="11px" opacity="0.95" text-anchor="middle" x="1384.4" y="1482.3">138</text><rect fill="#0f172a" height="13" opacity="0.85" rx="4" width="31" x="1368.3" y="1429.7" /><text fill="#22c55e" font-size="11px" opacity="0.95" text-anchor="middle" x="1383.8" y="1439.7">112</text><rect fill="#0f172a" height="13" opacity="0.85" rx="4" width="24" x="1393.6" y="1393.2" /><text fill="#22c55e" font-size="11px" opacity="0.95" text-anchor="middle" x="1405.6" y="1403.2">98</text><rect fill="#0f172a" height="13" opacity="0.85" rx="4" width="24" x="1431.5" y="1373.6" /><text fill="#ef4444" font-size="11px" opacity="0.95" text-anchor="middle" x="1443.5" y="1383.6">22</text><rect fill="#0f172a" height="13" opacity="0.85" rx="4" width="31" x="1802.2" y="1512.9" /><text fill="#22c55e" font-size="11px" opacity="0.95" text-anchor="middle" x="1817.7" y="1522.9">185</text><rect fill="#0f172a" height="13" opacity="0.85" rx="4" width="31" x="1785.5" y="1581.7" /><text fill="#22c55e" font-size="11px" opacity="0.95" text-anchor="middle" x="1801.0" y="1591.7">163</text><rect fill="#0f172a" height="13" opacity="0.85" rx="4" width="31" x="1760.4" y="1621.8" /><text fill="#22c55e" font-size="11px" opacity="0.95" text-anchor="middle" x="1775.9" y="1631.8">145</text><rect fill="#0f172a" height="13" opacity="0.85" rx="4" width="24" x="1275.3" y="1771.9" /><text fill="#22c55e" font-size="11px" opacity="0.95" text-anchor="middle" x="1287.3" y="1781.9">92</text><rect fill="#0f172a" height="13" opacity="0.85" rx="4" width="24" x="1237.7" y="1751.8" /><text fill="#f59e0b" font-size="11px" opacity="0.95" text-anchor="middle" x="1249.7" y="1761.8">71</text><rect fill="#0f172a" height="13" opacity="0.85" rx="4" width="24" x="1205.7" y="1723.7" /><text fill="#22c55e" font-size="11px" opacity="0.95" text-anchor="middle" x="1217.7" y="1733.7">85</text><rect fill="#0f172a" height="13" opacity="0.85" rx="4" width="24" x="1652.1" y="1146.9" /><text fill="#f59e0b" font-size="11px" opacity="0.95" text-anchor="middle" x="1664.1" y="1156.9">76</text><rect fill="#0f172a" height="13" opacity="0.85" rx="4" width="24" x="1733.9" y="1240.3" /><text fill="#f59e0b" font-size="11px" opacity="0.95" text-anchor="middle" x="1745.9" y="1250.3">75</text><rect fill="#0f172a" height="13" opacity="0.85" rx="4" width="31" x="1562.6" y="1795.9" /><text fill="#22c55e" font-size="11px" opacity="0.95" text-anchor="middle" x="1578.1" y="1805.9">162</text><rect fill="#0f172a" height="13" opacity="0.85" rx="4" width="24" x="1473.5" y="1810.9" /><text fill="#f59e0b" font-size="11px" opacity="0.95" text-anchor="middle" x="1485.5" y="1820.9">77</text><rect fill="#0f172a" height="13" opacity="0.85" rx="4" width="31" x="1102.6" y="1583.6" /><text fill="#22c55e" font-size="11px" opacity="0.95" text-anchor="middle" x="1118.1" y="1593.6">131</text><rect fill="#0f172a" height="13" opacity="0.85" rx="4" width="24" x="1088.5" y="1523.1" /><text fill="#f59e0b" font-size="11px" opacity="0.95" text-anchor="middle" x="1100.5" y="1533.1">68</text><rect fill="#0f172a" height="13" opacity="0.85" rx="4" width="31" x="2121.6" y="1482.2" /><text fill="#22c55e" font-size="11px" opacity="0.95" text-anchor="middle" x="2137.1" y="1492.2">141</text><rect fill="#0f172a" height="13" opacity="0.85" rx="4" width="31" x="1717.4" y="834.3" /><text fill="#22c55e" font-size="11px" opacity="0.95" text-anchor="middle" x="1732.9" y="844.3">105</text><rect fill="#0f172a" height="13" opacity="0.85" rx="4" width="24" x="1805.3" y="874.8" /><text fill="#f59e0b" font-size="11px" opacity="0.95" text-anchor="middle" x="1817.3" y="884.8">62</text><rect fill="#0f172a" height="13" opacity="0.85" rx="4" width="24" x="1850.4" y="918.2" /><text fill="#f59e0b" font-size="11px" opacity="0.95" text-anchor="middle" x="1862.4" y="928.2">55</text><rect fill="#0f172a" height="13" opacity="0.85" rx="4" width="31" x="1754.5" y="2050.9" /><text fill="#22c55e" font-size="11px" opacity="0.95" text-anchor="middle" x="1770.0" y="2060.9">118</text><rect fill="#0f172a" height="13" opacity="0.85" rx="4" width="31" x="1678.3" y="2084.5" /><text fill="#22c55e" font-size="11px" opacity="0.95" text-anchor="middle" x="1693.8" y="2094.5">103</text><rect fill="#0f172a" height="13" opacity="0.85" rx="4" width="24" x="1630.8" y="592.1" /><text fill="#22c55e" font-size="11px" opacity="0.95" text-anchor="middle" x="1642.8" y="602.1">84</text><rect fill="#0f172a" height="13" opacity="0.85" rx="4" width="24" x="1706.1" y="611.8" /><text fill="#f59e0b" font-size="11px" opacity="0.95" text-anchor="middle" x="1718.1" y="621.8">46</text></g><g id="legend"><rect fill="#1e293b" height="290" rx="8" stroke="#334155" stroke-width="1" width="280" x="20" y="20" /><text fill="#e2e8f0" font-size="12px" font-weight="bold" text-anchor="middle" x="160" y="38">Legend</text><circle cx="36" cy="59" fill="#f59e0b" r="9" /><text fill="#e2e8f0" font-size="11px" x="50" y="62">Coordinator</text><circle cx="36" cy="83" fill="#0ea5e9" r="7" /><text fill="#e2e8f0" font-size="11px" x="50" y="86">Router</text><circle cx="36" cy="107" fill="#475569" r="5" /><text fill="#e2e8f0" font-size="11px" x="50" y="110">End device</text><circle cx="36" cy="137" fill="#0ea5e9" filter="url(#glow-warn)" r="7" stroke="#f59e0b" stroke-width="2" /><text fill="#f59e0b" font-size="11px" x="50" y="140">Weak node  (LQI &lt; 80)</text><circle cx="36" cy="161" fill="#0ea5e9" filter="url(#glow-crit)" r="7" stroke="#ef4444" stroke-width="2" /><text fill="#ef4444" font-size="11px" x="50" y="164">Critical node  (LQI &lt; 30)</text><circle cx="36" cy="191" fill="#0ea5e9" r="7" /><rect fill="#0f172a" height="10" opacity="0.82" rx="3" width="14" x="29.0" y="186" /><text fill="#22c55e" font-size="8px" font-weight="bold" text-anchor="middle" x="36" y="194">42</text><text fill="#64748b" font-size="11px" x="50" y="194">path min LQI (worst hop)</text><line stroke="#22c55e" stroke-width="2" x1="28" x2="46" y1="214" y2="214" /><text fill="#e2e8f0" font-size="11px" x="52" y="218">LQI ≥ 80  (good)</text><line stroke="#f59e0b" stroke-width="2" x1="28" x2="46" y1="234" y2="234" /><text fill="#e2e8f0" font-size="11px" x="52" y="238">LQI 30–80  (weak)</text><line stroke="#ef4444" stroke-width="2" x1="28" x2="46" y1="254" y2="254" /><text fill="#e2e8f0" font-size="11px" x="52" y="258">LQI &lt; 30  (critical)</text></g></svg>