<?xml version="1.0" encoding="utf-8" ?>
<svg baseProfile="full" font-family="system-ui, -apple-system, sans-serif" height="2028" version="1.1" width="2028" xmlns="http://www.w3.org/2000/svg" xmlns:ev="http://www.w3.org/2001/xml-events" xmlns:xlink="http://www.w3.org/1999/xlink"><defs><filter height="220%" id="glow-warn" width="220%" x="-60%" y="-60%"><feGaussianBlur in="SourceAlpha" result="blur" stdDeviation="6" /><feFlood flood-color="#f59e0b" flood-opacity="0.85" result="flood" /><feComposite in="flood" in2="blur" operator="in" result="glow" /><feMerge><feMergeNode in="glow" /><feMergeNode in="SourceGraphic" /></feMerge></filter><filter height="220%" id="glow-crit" width="220%" x="-60%" y="-60%"><feGaussianBlur in="SourceAlpha" result="blur" stdDeviation="8" /><feFlood flood-color="#ef4444" flood-opacity="0.85" result="flood" /><feComposite in="flood" in2="blur" operator="in" result="glow" /><feMerge><feMergeNode in="glow" /><feMergeNode in="SourceGraphic" /></feMerge></filter></defs><rect fill="#0f172a" height="2028" width="2028" x="0" y="0" /><g id="ring-fills"><circle cx="1014.4619925891512" cy="1014.4619925891512" fill="#201018" r="674.4619925891512" stroke="none" /><circle cx="1014.4619925891512" cy="1014.4619925891512" fill="#161a1c" r="474.46199258915124" stroke="none" /><circle cx="1014.4619925891512" cy="1014.4619925891512" fill="#0d2420" r="274.46199258915124" stroke="none" /><circle cx="1014.4619925891512" cy="1014.4619925891512" fill="#0f172a" r="38" stroke="none" /></g><g id="rings"><circle cx="1014.4619925891512" cy="1014.4619925891512" fill="none" r="274.46199258915124" stroke="#1e4035" stroke-dasharray="5,4" stroke-width="1" /><text fill="#facc15" font-size="12px" font-weight="bold" letter-spacing="0.5" text-anchor="middle" x="1014.4619925891512" y="754.0">Hop 1</text><circle cx="1014.4619925891512" cy="1014.4619925891512" fill="none" r="474.46199258915124" stroke="#2e2f32" stroke-dasharray="5,4" stroke-width="1" /><text fill="#4ade80" font-size="12px" font-weight="bold" letter-spacing="0.5" text-anchor="middle" x="1014.4619925891512" y="554.0">Hop 2</text><circle cx="1014.4619925891512" cy="1014.4619925891512" fill="none" r="674.4619925891512" stroke="#3d1e2e" stroke-dasharray="5,4" stroke-width="1" /><text fill="#60a5fa" font-size="12px" font-weight="bold" letter-spacing="0.5" text-anchor="middle" x="1014.4619925891512" y="354.0">Hop 3</text></g><g id="edges" opacity="0.55"><line stroke="#22c55e" stroke-width="3.13" x1="1024.3" x2="1014.5" y1="1151.3" y2="1014.5" /><line stroke="#22c55e" stroke-width="2.83" x1="1179.3" x2="1024.3" y1="1350.7" y2="1151.3" /><line stroke="#f59e0b" stroke-width="1.44" x1="899.6" x2="1024.3" y1="1370.9" y2="1151.3" /><line stroke="#f59e0b" stroke-width="1.51" x1="878.0" x2="1014.5" y1="1029.3" y2="1014.5" /><line stroke="#22c55e" stroke-width="2.73" x1="684.4" x2="878.0" y1="1191.2" y2="1029.3" /><line stroke="#22c55e" stroke-width="2.36" x1="654.1" x2="878.0" y1="912.5" y2="1029.3" /><line stroke="#22c55e" stroke-width="2.5" x1="1139.8" x2="1014.5" y1="958.5" y2="1014.5" /><line stroke="#ef4444" stroke-width="1.04" x1="954.1" x2="1014.5" y1="891.2" y2="1014.5" /><line stroke="#f59e0b" stroke-width="1.57" x1="1356.4" x2="1139.8" y1="861.9" y2="958.5" /><line stroke="#22c55e" stroke-width="2.94" x1="1327.1" x2="1356.4" y1="532.6" y2="861.9" /><line stroke="#22c55e" stroke-width="3.11" x1="1582.0" x2="1356.4" y1="1103.6" y2="861.9" /></g><g id="nodes"><circle cx="1014.5" cy="1014.5" fill="#f59e0b" r="28" stroke="#f59e0b" stroke-width="0" /><circle cx="1139.8" cy="958.5" fill="#0ea5e9" r="20" stroke="#0ea5e9" stroke-width="0" /><rect fill="#0f172a" height="11" opacity="0.82" rx="3" width="26" x="1126.8" y="953.0" /><text fill="#22c55e" font-size="9px" font-weight="bold" text-anchor="middle" x="1139.8" y="961.8">155</text><circle cx="1356.4" cy="861.9" fill="#0ea5e9" filter="url(#glow-warn)" r="20" stroke="#f59e0b" stroke-width="2" /><rect fill="#0f172a" height="11" opacity="0.82" rx="3" width="20" x="1346.4" y="856.4" /><text fill="#f59e0b" font-size="9px" font-weight="bold" text-anchor="middle" x="1356.4" y="865.2">70</text><circle cx="1327.1" cy="532.6" fill="#475569" r="14" stroke="#475569" stroke-width="0" /><rect fill="#0f172a" height="10" opacity="0.82" rx="3" width="18" x="1318.1" y="527.6" /><text fill="#f59e0b" font-size="8px" font-weight="bold" text-anchor="middle" x="1327.1" y="535.6">70</text><circle cx="1582.0" cy="1103.6" fill="#475569" r="14" stroke="#475569" stroke-width="0" /><rect fill="#0f172a" height="10" opacity="0.82" rx="3" width="18" x="1573.0" y="1098.6" /><text fill="#f59e0b" font-size="8px" font-weight="bold" text-anchor="middle" x="1582.0" y="1106.6">70</text><circle cx="1024.3" cy="1151.3" fill="#0ea5e9" r="20" stroke="#0ea5e9" stroke-width="0" /><rect fill="#0f172a" height="11" opacity="0.82" rx="3" width="26" x="1011.3" y="1145.8" /><text fill="#22c55e" font-size="9px" font-weight="bold" text-anchor="middle" x="1024.3" y="1154.6">212</text><circle cx="1179.3" cy="1350.7" fill="#475569" r="14" stroke="#475569" stroke-width="0" /><rect fill="#0f172a" height="10" opacity="0.82" rx="3" width="23" x="1167.8" y="1345.7" /><text fill="#22c55e" font-size="8px" font-weight="bold" text-anchor="middle" x="1179.3" y="1353.7">185</text><circle cx="899.6" cy="1370.9" fill="#475569" filter="url(#glow-warn)" r="14" stroke="#f59e0b" stroke-width="2" /><rect fill="#0f172a" height="10" opacity="0.82" rx="3" width="18" x="890.6" y="1365.9" /><text fill="#f59e0b" font-size="8px" font-weight="bold" text-anchor="middle" x="899.6" y="1373.9">58</text><circle cx="878.0" cy="1029.3" fill="#0ea5e9" filter="url(#glow-warn)" r="20" stroke="#f59e0b" stroke-width="2" /><rect fill="#0f172a" height="11" opacity="0.82" rx="3" width="20" x="868.0" y="1023.8" /><text fill="#f59e0b" font-size="9px" font-weight="bold" text-anchor="middle" x="878.0" y="1032.6">65</text><circle cx="684.4" cy="1191.2" fill="#475569" r="14" stroke="#475569" stroke-width="0" /><rect fill="#0f172a" height="10" opacity="0.82" rx="3" width="18" x="675.4" y="1186.2" /><text fill="#f59e0b" font-size="8px" font-weight="bold" text-anchor="middle" x="684.4" y="1194.2">65</text><circle cx="654.1" cy="912.5" fill="#475569" r="14" stroke="#475569" stroke-width="0" /><rect fill="#0f172a" height="10" opacity="0.82" rx="3" width="18" x="645.1" y="907.5" /><text fill="#f59e0b" font-size="8px" font-weight="bold" text-anchor="middle" x="654.1" y="915.5">65</text><circle cx="954.1" cy="891.2" fill="#475569" filter="url(#glow-crit)" r="14" stroke="#ef4444" stroke-width="3" /><rect fill="#0f172a" height="10" opacity="0.82" rx="3" width="18" x="945.1" y="886.2" /><text fill="#ef4444" font-size="8px" font-weight="bold" text-anchor="middle" x="954.1" y="894.2">22</text></g><g id="labels"><rect fill="#0f172a" height="16" opacity="0.7" rx="5" width="76" x="976.5" y="1045.5" /><text fill="#e2e8f0" font-size="11px" text-anchor="middle" x="1014.5" y="1058.5">Coordinator</text><rect fill="#0f172a" height="16" opacity="0.7" rx="5" width="82" x="1166.8" y="931.7" /><text fill="#e2e8f0" font-size="11px" text-anchor="start" x="1170.8" y="944.7">TRADFRI Bulb</text><rect fill="#0f172a" height="16" opacity="0.7" rx="5" width="76" x="1383.5" y="835.0" /><text fill="#e2e8f0" font-size="11px" text-anchor="start" x="1387.5" y="848.0">Hall Outlet</text><rect fill="#0f172a" height="16" opacity="0.7" rx="5" width="94" x="1338.4" y="496.1" /><text fill="#e2e8f0" font-size="11px" text-anchor="start" x="1342.4" y="509.1">Bedroom Sensor</text><rect fill="#0f172a" height="16" opacity="0.7" rx="5" width="88" x="1605.6" y="1095.0" /><text fill="#e2e8f0" font-size="11px" text-anchor="start" x="1609.6" y="1108.0">Living Motion</text><rect fill="#0f172a" height="16" opacity="0.7" rx="5" width="76" x="988.8" y="1172.2" /><text fill="#e2e8f0" font-size="11px" text-anchor="middle" x="1026.8" y="1185.2">IKEA Outlet</text><rect fill="#0f172a" height="16" opacity="0.7" rx="5" width="112" x="1187.6" y="1362.9" /><text fill="#e2e8f0" font-size="11px" text-anchor="start" x="1191.6" y="1375.9">Aqara Door Sensor</text><rect fill="#0f172a" height="16" opacity="0.7" rx="5" width="70" x="825.0" y="1384.5" /><text fill="#e2e8f0" font-size="11px" text-anchor="end" x="891.0" y="1397.5">Hue Motion</text><rect fill="#0f172a" height="16" opacity="0.7" rx="5" width="88" x="760.2" y="1019.9" /><text fill="#e2e8f0" font-size="11px" text-anchor="end" x="844.2" y="1032.9">Sonoff ZBMINI</text><rect fill="#0f172a" height="16" opacity="0.7" rx="5" width="70" x="593.7" y="1191.5" /><text fill="#e2e8f0" font-size="11px" text-anchor="end" x="659.7" y="1204.5">Aqara Temp</text><rect fill="#0f172a" height="16" opacity="0.7" rx="5" width="100" x="531.2" y="891.9" /><text fill="#e2e8f0" font-size="11px" text-anchor="end" x="627.2" y="904.9">Aqara Vibration</text><rect fill="#0f172a" height="16" opacity="0.7" rx="5" width="94" x="851.7" y="853.1" /><text fill="#e2e8f0" font-size="11px" text-anchor="end" x="941.7" y="866.1">Smoke Detector</text></g><g id="lqi-labels"><rect fill="#0f172a" height="13" opacity="0.85" rx="4" width="31" x="1001.9" y="1046.5" /><text fill="#22c55e" font-size="11px" opacity="0.95" text-anchor="middle" x="1017.4" y="1056.5">212</text><rect fill="#0f172a" height="13" opacity="0.85" rx="4" width="31" x="1055.3" y="1202.2" /><text fill="#22c55e" font-size="11px" opacity="0.95" text-anchor="middle" x="1070.8" y="1212.2">185</text><rect fill="#0f172a" height="13" opacity="0.85" rx="4" width="24" x="974.9" y="1208.2" /><text fill="#f59e0b" font-size="11px" opacity="0.95" text-anchor="middle" x="986.9" y="1218.2">58</text><rect fill="#0f172a" height="13" opacity="0.85" rx="4" width="24" x="961.5" y="1009.9" /><text fill="#f59e0b" font-size="11px" opacity="0.95" text-anchor="middle" x="973.5" y="1019.9">65</text><rect fill="#0f172a" height="13" opacity="0.85" rx="4" width="31" x="804.4" y="1068.8" /><text fill="#22c55e" font-size="11px" opacity="0.95" text-anchor="middle" x="819.9" y="1078.8">176</text><rect fill="#0f172a" height="13" opacity="0.85" rx="4" width="31" x="795.4" y="985.2" /><text fill="#22c55e" font-size="11px" opacity="0.95" text-anchor="middle" x="810.9" y="995.2">142</text><rect fill="#0f172a" height="13" opacity="0.85" rx="4" width="31" x="1036.6" y="988.7" /><text fill="#22c55e" font-size="11px" opacity="0.95" text-anchor="middle" x="1052.1" y="998.7">155</text><rect fill="#0f172a" height="13" opacity="0.85" rx="4" width="24" x="984.3" y="968.5" /><text fill="#ef4444" font-size="11px" opacity="0.95" text-anchor="middle" x="996.3" y="978.5">22</text><rect fill="#0f172a" height="13" opacity="0.85" rx="4" width="24" x="1192.8" y="920.5" /><text fill="#f59e0b" font-size="11px" opacity="0.95" text-anchor="middle" x="1204.8" y="930.5">70</text><rect fill="#0f172a" height="13" opacity="0.85" rx="4" width="31" x="1332.1" y="754.1" /><text fill="#22c55e" font-size="11px" opacity="0.95" text-anchor="middle" x="1347.6" y="764.1">195</text><rect fill="#0f172a" height="13" opacity="0.85" rx="4" width="31" x="1408.6" y="925.4" /><text fill="#22c55e" font-size="11px" opacity="0.95" text-anchor="middle" x="1424.1" y="935.4">210</text></g><g id="legend"><rect fill="#1e293b" height="290" rx="8" stroke="#334155" stroke-width="1" width="280" x="20" y="20" /><text fill="#e2e8f0" font-size="12px" font-weight="bold" text-anchor="middle" x="160" y="38">Legend</text><circle cx="36" cy="59" fill="#f59e0b" r="9" /><text fill="#e2e8f0" font-size="11px" x="50" y="62">Coordinator</text><circle cx="36" cy="83" fill="#0ea5e9" r="7" /><text fill="#e2e8f0" font-size="11px" x="50" y="86">Router</text><circle cx="36" cy="107" fill="#475569" r="5" /><text fill="#e2e8f0" font-size="11px" x="50" y="110">End device</text><circle cx="36" cy="137" fill="#0ea5e9" filter="url(#glow-warn)" r="7" stroke="#f59e0b" stroke-width="2" /><text fill="#f59e0b" font-size="11px" x="50" y="140">Weak node  (LQI &lt; 80)</text><circle cx="36" cy="161" fill="#0ea5e9" filter="url(#glow-crit)" r="7" stroke="#ef4444" stroke-width="2" /><text fill="#ef4444" font-size="11px" x="50" y="164">Critical node  (LQI &lt; 30)</text><circle cx="36" cy="191" fill="#0ea5e9" r="7" /><rect fill="#0f172a" height="10" opacity="0.82" rx="3" width="14" x="29.0" y="186" /><text fill="#22c55e" font-size="8px" font-weight="bold" text-anchor="middle" x="36" y="194">42</text><text fill="#64748b" font-size="11px" x="50" y="194">path min LQI (worst hop)</text><line stroke="#22c55e" stroke-width="2" x1="28" x2="46" y1="214" y2="214" /><text fill="#e2e8f0" font-size="11px" x="52" y="218">LQI ≥ 80  (good)</text><line stroke="#f59e0b" stroke-width="2" x1="28" x2="46" y1="234" y2="234" /><text fill="#e2e8f0" font-size="11px" x="52" y="238">LQI 30–80  (weak)</text><line stroke="#ef4444" stroke-width="2" x1="28" x2="46" y1="254" y2="254" /><text fill="#e2e8f0" font-size="11px" x="52" y="258">LQI &lt; 30  (critical)</text></g></svg>